<svg width="100" height="89" viewBox="0 0 100 89" fill="none" xmlns="http://www.w3.org/2000/svg">
<path d="M48.0489 31.6343C56.0293 38.4444 81.912 66.3462 83.4595 76.9545C85.007 87.5628 73.413 83.4912 71.6999 82.7689C65.9008 80.2634 70.565 72.7866 70.565 72.7866C70.565 72.7866 66.6875 80.7071 59.7261 76.6298C41.2645 64.5346 13.7423 31.1164 17.1998 20.8646C19.6743 13.9897 34.6868 22.2154 37.3263 24.2259C38.2181 24.906 43.1654 27.7472 38.3922 34.7285C38.3922 34.7285 43.2607 27.8111 48.0465 31.6292L48.0489 31.6343ZM84.7715 76.831C83.2202 66.2213 55.9663 37.9739 48.3734 30.7329C44.7033 27.6416 47.7244 19.8818 47.7244 19.8818C47.7244 19.8818 44.1671 28.0866 37.6545 23.3258C35.015 21.3153 19.1198 13.1943 16.6453 20.0693C12.2443 32.2968 38.596 60.8322 55.3884 74.9122C59.4272 78.3643 65.3902 80.9542 61.4291 88.4264C61.4291 88.4264 64.6378 81.0256 71.4055 84.0446C72.3487 84.4643 73.3465 84.7559 74.3682 84.887C78.2907 85.3989 86.0149 85.3145 84.7728 76.8272L84.7715 76.831Z" fill="#231815"/>
<path d="M10.4476 33.3785C9.6392 30.7764 11.0161 27.9723 13.5913 27.074C19.306 25.0833 32.7186 24.8535 58.9022 41.4603C97.7093 66.0751 94.06 75.5566 84.7723 76.8274C73.721 78.338 17.1991 55.0831 10.4489 33.3747L10.4476 33.3785ZM86.0905 78.0835C95.9045 76.1486 98.1091 64.9642 59.3034 40.3456C33.1236 23.7402 19.8054 24.2828 13.9925 25.9593C8.88478 27.4375 8.76846 31.1179 9.50084 33.7433C15.6913 55.8797 75.1483 80.2417 86.0905 78.0835Z" fill="#231815"/>
<path d="M6.84503 48.4107C5.18999 46.2462 5.51691 43.1394 7.62527 41.4091C12.3048 37.5722 24.8178 32.7373 55.1188 39.3108C100.029 49.0552 99.8683 59.2134 91.5864 63.605C81.7314 68.8292 20.6584 66.4624 6.84501 48.4067L6.84503 48.4107ZM93.2566 64.3303C101.804 59.134 100.022 47.8745 55.1116 38.1262C24.8146 31.5526 12.498 36.6487 7.61805 40.2245C3.33184 43.3714 4.49012 46.8666 6.08185 49.0792C19.5172 67.7295 83.727 70.1249 93.2566 64.3303Z" fill="#231815"/>
</svg>
