<svg width="206" height="34" viewBox="0 0 206 34" fill="none" xmlns="http://www.w3.org/2000/svg">
<path fill-rule="evenodd" clip-rule="evenodd" d="M204.38 13.6L202.44 15.74L201.7 15.01C200.98 14.3 199.71 13.84 197.69 13.84C196.18 13.84 195.24 14.14 194.69 14.58C194.18 14.99 193.86 15.62 193.86 16.68C193.86 17.36 194.11 17.86 194.64 18.27C195.31 18.76 196.14 19.16 197.16 19.44C198.31 19.75 199.44 20.09 200.56 20.44C201.83 20.81 202.94 21.44 203.85 22.32C204.86 23.28 205.34 24.53 205.34 25.99C205.34 27.74 204.59 29.18 203.16 30.21C201.74 31.23 199.8 31.67 197.46 31.67C196.28 31.67 195.1 31.51 193.95 31.2C192.79 30.88 191.81 30.39 191.13 29.64L190.51 28.97L192.43 26.86L193.17 27.54C193.96 28.27 195.29 28.73 197.36 28.73C199.27 28.73 200.53 28.37 201.29 27.81C202.14 27.19 202.42 26.59 202.42 26.01C202.42 25.27 202.16 24.72 201.61 24.27C200.95 23.73 200.12 23.31 199.1 23.03H199.09C197.98 22.7 196.85 22.37 195.72 22.04H195.71C194.47 21.65 193.38 21.04 192.48 20.21C191.47 19.28 190.98 18.05 190.98 16.62C190.98 14.79 191.6 13.27 192.97 12.28C194.25 11.34 195.82 10.91 197.62 10.91C200.29 10.91 202.45 11.5 203.8 12.93L204.44 13.6H204.38Z" fill="white"/>
<path fill-rule="evenodd" clip-rule="evenodd" d="M190.25 11.28V14.21H183.74V31.26H180.81V14.21H174.3V11.28H190.25Z" fill="white"/>
<path fill-rule="evenodd" clip-rule="evenodd" d="M143.97 28.09H154.89L148.05 9.28L140.05 31.26H136.67L148.05 0L159.42 31.26H143.96V28.09H143.97Z" fill="white"/>
<path fill-rule="evenodd" clip-rule="evenodd" d="M136.76 28.33L136.18 29.06C134.78 30.81 132.57 31.58 129.82 31.58C127.07 31.58 124.85 30.79 123.47 28.98C122.15 27.25 121.59 24.61 121.59 21.28C121.59 17.95 122.15 15.31 123.47 13.58C124.84 11.77 127.05 10.98 129.82 10.98C133.04 10.98 135.5 12.05 136.8 14.44L137.2 15.16L128.7 22.28H124.55C124.6 23.49 124.73 24.5 124.93 25.31C125.19 26.31 125.55 26.99 125.97 27.43C126.47 27.91 126.98 28.22 127.51 28.39C128.09 28.56 128.85 28.66 129.82 28.66C132.04 28.66 133.28 28.08 133.92 27.23L134.58 26.35L136.77 28.34L136.76 28.33ZM133.21 14.68L124.52 21.92C124.52 21.71 124.52 21.49 124.52 21.27C124.52 19.6 124.66 18.28 124.92 17.27C125.18 16.23 125.55 15.56 125.96 15.15C126.46 14.65 126.97 14.35 127.49 14.19H127.5H127.51C128.08 14 128.84 13.9 129.81 13.9C131.4 13.9 132.49 14.2 133.21 14.68Z" fill="white"/>
<path fill-rule="evenodd" clip-rule="evenodd" d="M90.8399 11.28V21.27C90.8399 24.3 91.3299 26.18 92.0799 27.16C92.8599 28.14 93.9199 28.64 95.3499 28.64C96.7799 28.64 97.8299 28.14 98.5899 27.16C99.3599 26.18 99.8599 24.3 99.8599 21.27V11.28H102.79V21.27C102.79 24.45 102.24 27.02 101 28.81C99.7099 30.67 97.7699 31.57 95.3399 31.57C92.9099 31.57 90.9699 30.67 89.6799 28.81C88.4399 27.02 87.8899 24.45 87.8899 21.27V11.28H90.8199H90.8399Z" fill="white"/>
<path fill-rule="evenodd" clip-rule="evenodd" d="M86.6399 11.28V14.21H80.1299V31.26H77.1999V14.21H70.6899V11.28H86.6399Z" fill="white"/>
<path fill-rule="evenodd" clip-rule="evenodd" d="M55.1599 31.93V11.95H57.6499L66.1999 25.72V11.95H69.1299V31.93H66.6399L58.0899 18.14V31.93H55.1599Z" fill="white"/>
<path fill-rule="evenodd" clip-rule="evenodd" d="M52.5699 28.33L51.9899 29.06C50.5899 30.81 48.3799 31.58 45.6299 31.58C42.8799 31.58 40.6599 30.79 39.2899 28.98C37.9699 27.25 37.4099 24.61 37.4099 21.28C37.4099 17.95 37.9699 15.31 39.2899 13.58C40.6599 11.77 42.8699 10.98 45.6299 10.98C48.8499 10.98 51.2999 12.05 52.6099 14.44L52.9999 15.16L44.4999 22.28H40.3499C40.3999 23.49 40.5299 24.5 40.7299 25.31C40.9899 26.31 41.3499 26.99 41.7699 27.43C42.2699 27.91 42.7799 28.22 43.3099 28.39C43.8899 28.56 44.6499 28.66 45.6199 28.66C47.8399 28.66 49.0799 28.08 49.7199 27.23L50.3799 26.35L52.5699 28.34V28.33ZM49.0199 14.68L40.3299 21.92C40.3299 21.71 40.3299 21.49 40.3299 21.27C40.3299 19.6 40.4699 18.28 40.7299 17.27C40.9899 16.23 41.3599 15.56 41.7699 15.15C42.2699 14.65 42.7799 14.35 43.2999 14.19H43.3099H43.3199C43.8899 14 44.6499 13.9 45.6199 13.9C47.2099 13.9 48.2999 14.2 49.0199 14.68Z" fill="white"/>
<path fill-rule="evenodd" clip-rule="evenodd" d="M37.1799 11.28L27.9199 33.13L18.6599 11.28H21.8199L27.9199 25.63L34.0199 11.28H37.1799Z" fill="white"/>
<path fill-rule="evenodd" clip-rule="evenodd" d="M16 16.99H3.17V28.09H18.3V31.26H0V1.95996H20.62L8.69 13.82H16V16.99ZM12.93 5.12996H3.17V14.82L12.93 5.12996Z" fill="white"/>
<path fill-rule="evenodd" clip-rule="evenodd" d="M160.64 31.26H163.57V14.21C163.57 14.21 170.53 13.66 170.53 17.02C170.53 19.55 166.74 20.5 166.74 20.5L171.76 31.26H174.99L170.51 21.68C170.51 21.68 173.45 20.18 173.45 17.02C173.45 13.86 170.87 11.28 165.29 11.28H160.63V31.26H160.64Z" fill="white"/>
<path fill-rule="evenodd" clip-rule="evenodd" d="M106.38 31.26H109.31V14.21C109.31 14.21 116.27 13.66 116.27 17.02C116.27 19.55 112.48 20.5 112.48 20.5L117.5 31.26H120.73L116.25 21.68C116.25 21.68 119.19 20.18 119.19 17.02C119.19 13.86 116.61 11.28 111.03 11.28H106.37V31.26H106.38Z" fill="white"/>
</svg>
