<svg width="100" height="85" viewBox="0 0 100 85" fill="none" xmlns="http://www.w3.org/2000/svg">
<path d="M48.0489 21.6343C56.0293 28.4444 81.912 56.3462 83.4595 66.9545C85.007 77.5628 73.413 73.4912 71.6999 72.7689C65.9008 70.2634 70.565 62.7866 70.565 62.7866C70.565 62.7866 66.6875 70.7071 59.7261 66.6298C41.2645 54.5346 13.7423 21.1164 17.1998 10.8646C19.6743 3.98966 34.6868 12.2154 37.3263 14.2259C38.2181 14.906 43.1654 17.7472 38.3922 24.7285C38.3922 24.7285 43.2607 17.8111 48.0465 21.6292L48.0489 21.6343ZM84.7715 66.831C83.2202 56.2213 55.9663 27.9739 48.3734 20.7328C44.7033 17.6416 47.7244 9.8818 47.7244 9.8818C47.7244 9.8818 44.1671 18.0866 37.6545 13.3258C35.015 11.3153 19.1198 3.19434 16.6453 10.0693C12.2443 22.2968 38.596 50.8322 55.3884 64.9122C59.4272 68.3643 65.3902 70.9542 61.4291 78.4264C61.4291 78.4264 64.6378 71.0256 71.4055 74.0446C72.3487 74.4643 73.3465 74.7559 74.3682 74.887C78.2907 75.3989 86.0149 75.3145 84.7728 66.8272L84.7715 66.831Z" fill="#231815"/>
<path d="M10.4476 23.3785C9.6392 20.7764 11.0161 17.9723 13.5913 17.074C19.306 15.0833 32.7186 14.8535 58.9022 31.4603C97.7093 56.0751 94.06 65.5566 84.7723 66.8274C73.721 68.338 17.1991 45.0831 10.4489 23.3747L10.4476 23.3785ZM86.0905 68.0835C95.9045 66.1486 98.1091 54.9642 59.3034 30.3456C33.1236 13.7402 19.8054 14.2828 13.9925 15.9593C8.88478 17.4375 8.76846 21.1179 9.50084 23.7433C15.6913 45.8797 75.1483 70.2417 86.0905 68.0835Z" fill="#231815"/>
<path d="M6.84503 38.4107C5.18999 36.2462 5.51691 33.1394 7.62527 31.4091C12.3048 27.5722 24.8178 22.7373 55.1188 29.3108C100.029 39.0552 99.8683 49.2134 91.5864 53.605C81.7314 58.8292 20.6584 56.4624 6.84501 38.4067L6.84503 38.4107ZM93.2566 54.3303C101.804 49.134 100.022 37.8745 55.1116 28.1262C24.8146 21.5526 12.498 26.6487 7.61805 30.2245C3.33184 33.3714 4.49012 36.8666 6.08185 39.0792C19.5172 57.7295 83.727 60.1249 93.2566 54.3303Z" fill="#231815"/>
</svg>
