<?xml version="1.0" encoding="UTF-8"?>
<svg id="_圖層_2" data-name="圖層 2" xmlns="http://www.w3.org/2000/svg" viewBox="0 0 22.01 28">
  <defs>
    <style>
      .cls-1 {
        fill: #000;
        stroke-width: 0px;
      }
    </style>
  </defs>
  <g id="_圖層_2-2" data-name=" 圖層 2">
    <g id="_圖層_1-2" data-name=" 圖層 1-2">
      <g>
        <path class="cls-1" d="M22.01,15.69v11.08c0,.7-.26,1.08-.84,1.22-.29.07-.53-.05-.77-.15-1.39-.56-2.78-1.12-4.17-1.67-.16-.07-.29-.06-.45,0-1.42.58-2.85,1.14-4.26,1.71-.36.15-.69.13-1.04,0-1.39-.56-2.78-1.12-4.17-1.68-.19-.08-.35-.09-.56,0-1.4.57-2.81,1.09-4.19,1.68C.78,28.21,0,27.78,0,26.78c.02-2.23,0-4.45,0-6.68V4.62C0,3.82.14,3.07.55,2.36,1.24,1.16,2.3.56,3.64.42,6.59.1,9.54-.07,12.5.02c2.22.07,4.44.13,6.63.55,1.41.26,2.72,1.8,2.83,3.24.03.44.05,8.36.05,11.88h0ZM5.07,24.29c.54-.23,1.05-.33,1.63-.08,1.25.54,2.53,1.02,3.79,1.54.33.14.62.15.97,0,1.34-.56,2.69-1.09,4.04-1.63.33-.13.66-.12,1,.02,1,.42,2.02.81,3.03,1.2q.46.18.46-.34V4.49c0-1.16-.67-1.95-1.73-2.08-.9-.1-1.8-.19-2.7-.25-3.68-.25-7.37-.2-11.05.18-.43.05-.87.02-1.29.19-.83.32-1.23,1-1.23,2.08v20.92c1.07-.43,2.08-.83,3.07-1.24h0Z"/>
        <path class="cls-1" d="M16,9.05c-.02.26-.15.51-.36.72-2.62,2.61-5.24,5.24-7.86,7.85-.42.42-.84.48-1.29.22-.36-.2-.53-.62-.45-1.05.05-.23.18-.41.34-.56,2.61-2.61,5.22-5.22,7.83-7.83.33-.33.71-.51,1.18-.3.4.17.57.49.6.96Z"/>
        <path class="cls-1" d="M6.51,10c.07-.9.63-1.48,1.5-1.49.85,0,1.49.65,1.48,1.49,0,.9-.62,1.48-1.48,1.49-.85,0-1.45-.65-1.5-1.49Z"/>
        <path class="cls-1" d="M15.5,16.01c-.07.91-.65,1.48-1.5,1.48s-1.49-.66-1.48-1.5c.02-.91.63-1.48,1.49-1.48s1.45.66,1.49,1.5Z"/>
      </g>
    </g>
  </g>
</svg>