<?xml version="1.0" encoding="UTF-8"?>
<svg id="_圖層_2" data-name="圖層 2" xmlns="http://www.w3.org/2000/svg" viewBox="0 0 33.59 23.99">
  <defs>
    <style>
      .cls-1 {
        fill: #000;
        stroke-width: 0px;
      }
    </style>
  </defs>
  <g id="_圖層_1-2" data-name="圖層 1">
    <g>
      <path class="cls-1" d="M16.78,0c4.52,0,9.05,0,13.57,0,1.52,0,2.67.78,3.07,2.08.11.37.16.74.16,1.13,0,1.44-.02,2.88,0,4.31,0,.64-.21,1.1-.76,1.46-1.83,1.2-2.1,3.54-.96,5.11.32.45.75.77,1.2,1.08.31.22.49.53.5.88.02,1.72.05,3.45-.01,5.17-.06,1.43-1.38,2.76-3.14,2.75-3.12-.02-6.23,0-9.35,0-5.93,0-11.86,0-17.79,0-1.54,0-2.72-.79-3.11-2.1-.11-.36-.16-.74-.16-1.13,0-1.44.01-2.88,0-4.31,0-.63.21-1.08.74-1.43,1.86-1.21,2.09-3.55,1.02-5.07-.26-.37-.57-.69-.95-.92C.24,8.68-.01,8.19,0,7.52c.03-1.56-.01-3.13.04-4.7C.09,1.22,1.47-.01,3.26,0c4.51.03,9.01,0,13.52,0ZM3.25,2.41c-.66,0-.84.18-.84.85,0,1.18.01,2.37,0,3.55,0,.31.09.51.33.68.72.52,1.2,1.25,1.54,2.04,1.09,2.47.46,5.33-1.59,7.02-.22.18-.29.37-.29.65.02,1.15,0,2.3,0,3.45,0,.79.15.94.95.94,4.57,0,9.14,0,13.72,0h4.84q.88,0,.88-.86c0-.17,0-.35.04-.52.1-.58.64-1.04,1.19-1.02.58.02,1.05.44,1.13,1.04.04.3.05.61.03.91-.02.34.05.47.43.46,1.58-.03,3.16-.01,4.75-.01.63,0,.82-.19.82-.83,0-1.18-.01-2.37,0-3.55,0-.33-.1-.53-.35-.72-.72-.54-1.21-1.29-1.55-2.09-1.03-2.4-.46-5.28,1.67-7,.16-.13.23-.27.23-.48-.01-1.26,0-2.53,0-3.79,0-.5-.22-.72-.73-.72-1.65,0-3.29,0-4.94,0-.29,0-.34.11-.33.36,0,.35.04.7-.03,1.05-.11.56-.62.99-1.17.99-.57,0-1.07-.43-1.15-1.02-.04-.28-.06-.58-.03-.86.04-.41-.07-.53-.51-.53-3.16.02-6.33.01-9.5.01s-6.36,0-9.54,0Z"/>
      <path class="cls-1" d="M13.79,12c1.34,0,2.68,0,4.02,0,.97,0,1.53.67,1.31,1.53-.12.48-.59.86-1.18.86-2.78.01-5.56.01-8.34,0-.71,0-1.22-.56-1.21-1.22.01-.64.55-1.16,1.26-1.16,1.37-.02,2.75,0,4.12,0Z"/>
      <path class="cls-1" d="M11.97,17.99c-.77,0-1.53.01-2.3,0-.6-.01-1.09-.38-1.21-.83-.14-.56.08-1.11.55-1.4.23-.14.49-.15.74-.15,1.52-.01,3.03-.02,4.55,0,.63,0,1.12.37,1.23.86.13.58-.09,1.11-.58,1.39-.27.15-.58.14-.88.14-.7,0-1.4,0-2.11,0Z"/>
      <path class="cls-1" d="M25.2,9.09c-.02.23-.02.5-.07.76-.12.59-.61.96-1.2.94-.56-.02-1.07-.46-1.1-1.04-.04-.65-.21-1.33.17-1.95.27-.45.73-.66,1.2-.56.53.11.87.46.95.99.04.27.04.54.05.85Z"/>
      <path class="cls-1" d="M22.77,14.95c.02-.24.01-.51.06-.77.12-.62.61-1,1.22-.97.57.03,1.05.46,1.09,1.05.04.65.21,1.33-.17,1.95-.27.44-.74.65-1.21.54-.53-.12-.86-.47-.93-1.01-.03-.25-.03-.51-.05-.8Z"/>
    </g>
  </g>
</svg>