<?xml version="1.0" encoding="UTF-8"?>
<svg id="_圖層_2" data-name="圖層 2" xmlns="http://www.w3.org/2000/svg" xmlns:xlink="http://www.w3.org/1999/xlink" viewBox="0 0 300 300">
  <defs>
    <style>
      .cls-1 {
        fill: url(#_未命名漸層_3-12);
      }

      .cls-1, .cls-2, .cls-3, .cls-4, .cls-5, .cls-6, .cls-7, .cls-8, .cls-9, .cls-10, .cls-11, .cls-12, .cls-13, .cls-14, .cls-15 {
        stroke-width: 0px;
      }

      .cls-2 {
        fill: url(#_未命名漸層_3-13);
      }

      .cls-3 {
        fill: url(#_未命名漸層_3-10);
      }

      .cls-4 {
        fill: url(#_未命名漸層_3-11);
      }

      .cls-5 {
        fill: #e3c8b9;
      }

      .cls-6 {
        fill: #3b4163;
      }

      .cls-7 {
        fill: url(#_未命名漸層_3);
      }

      .cls-8 {
        fill: url(#_未命名漸層_3-4);
      }

      .cls-9 {
        fill: url(#_未命名漸層_3-8);
      }

      .cls-10 {
        fill: url(#_未命名漸層_3-7);
      }

      .cls-11 {
        fill: url(#_未命名漸層_3-6);
      }

      .cls-12 {
        fill: url(#_未命名漸層_3-3);
      }

      .cls-13 {
        fill: url(#_未命名漸層_3-2);
      }

      .cls-14 {
        fill: url(#_未命名漸層_3-5);
      }

      .cls-15 {
        fill: url(#_未命名漸層_3-9);
      }
    </style>
    <linearGradient id="_未命名漸層_3" data-name="未命名漸層 3" x1="5.71" y1="284.54" x2="296.62" y2="284.54" gradientUnits="userSpaceOnUse">
      <stop offset=".74" stop-color="#fff" stop-opacity="0"/>
      <stop offset=".76" stop-color="rgba(255, 255, 255, 0)" stop-opacity="0"/>
      <stop offset=".77" stop-color="rgba(255, 255, 255, .04)" stop-opacity=".04"/>
      <stop offset=".79" stop-color="rgba(255, 255, 255, .1)" stop-opacity=".1"/>
      <stop offset=".79" stop-color="rgba(255, 255, 255, .18)" stop-opacity=".18"/>
      <stop offset=".8" stop-color="rgba(255, 255, 255, .28)" stop-opacity=".28"/>
      <stop offset=".81" stop-color="rgba(255, 255, 255, .4)" stop-opacity=".4"/>
      <stop offset=".82" stop-color="#fff" stop-opacity=".5"/>
      <stop offset=".82" stop-color="#dbc01f"/>
      <stop offset=".83" stop-color="#f1dc3a"/>
      <stop offset=".84" stop-color="#f5e13f"/>
      <stop offset=".84" stop-color="#dbc01f"/>
      <stop offset=".85" stop-color="#e1ca45"/>
      <stop offset=".87" stop-color="#e9d876"/>
      <stop offset=".89" stop-color="#efe4a0"/>
      <stop offset=".91" stop-color="#f5eec2"/>
      <stop offset=".93" stop-color="#f9f5dd"/>
      <stop offset=".95" stop-color="#fcfaf0"/>
      <stop offset=".98" stop-color="#fefdfb"/>
      <stop offset="1" stop-color="#fff"/>
    </linearGradient>
    <linearGradient id="_未命名漸層_3-2" data-name="未命名漸層 3" x1="5.71" y1="289.61" x2="300.04" y2="289.61" xlink:href="#_未命名漸層_3"/>
    <linearGradient id="_未命名漸層_3-3" data-name="未命名漸層 3" x1="4.78" y1="291.28" x2="303.03" y2="291.28" xlink:href="#_未命名漸層_3"/>
    <linearGradient id="_未命名漸層_3-4" data-name="未命名漸層 3" x1="-3.53" y1="291.01" x2="325.7" y2="291.01" xlink:href="#_未命名漸層_3"/>
    <linearGradient id="_未命名漸層_3-5" data-name="未命名漸層 3" x1="16.7" y1="288.71" x2="280.69" y2="288.71" xlink:href="#_未命名漸層_3"/>
    <linearGradient id="_未命名漸層_3-6" data-name="未命名漸層 3" x1="10.63" y1="288.5" x2="288.42" y2="288.5" xlink:href="#_未命名漸層_3"/>
    <linearGradient id="_未命名漸層_3-7" data-name="未命名漸層 3" x1="16.55" y1="286.74" x2="269.05" y2="286.74" xlink:href="#_未命名漸層_3"/>
    <linearGradient id="_未命名漸層_3-8" data-name="未命名漸層 3" x1="-41.03" y1="286.65" x2="320.73" y2="286.65" xlink:href="#_未命名漸層_3"/>
    <linearGradient id="_未命名漸層_3-9" data-name="未命名漸層 3" x1="-126.26" y1="285.67" x2="354.22" y2="285.67" xlink:href="#_未命名漸層_3"/>
    <linearGradient id="_未命名漸層_3-10" data-name="未命名漸層 3" x1="-89.91" y1="280.18" x2="322.94" y2="280.18" xlink:href="#_未命名漸層_3"/>
    <linearGradient id="_未命名漸層_3-11" data-name="未命名漸層 3" x1="-54.82" y1="283.97" x2="298.93" y2="283.97" xlink:href="#_未命名漸層_3"/>
    <linearGradient id="_未命名漸層_3-12" data-name="未命名漸層 3" x1="-78.75" y1="281.48" x2="302.18" y2="281.48" xlink:href="#_未命名漸層_3"/>
    <linearGradient id="_未命名漸層_3-13" data-name="未命名漸層 3" x1="-8.72" y1="286.64" x2="295.64" y2="286.64" xlink:href="#_未命名漸層_3"/>
  </defs>
  <g id="bkcolor">
    <rect class="cls-6" width="300" height="300"/>
  </g>
  <g id="_圖層2" data-name="圖層2">
    <g>
      <g>
        <path class="cls-5" d="M5.71,27.93c0-9.94,0-14.91,0-24.85h15.92c-.1,1.78-.12,2.66-.15,4.41-4.56-.17-6.85-.27-11.41-.48-.01,2.67,0,4,.04,6.65,3.9.44,5.86.64,9.76,1.01.07,1.68.12,2.52.23,4.19-3.97-.48-5.95-.74-9.92-1.32.07,3.05.11,4.58.21,7.62,5.06.99,7.59,1.43,12.66,2.21.19,1.67.28,2.5.48,4.16-7.13-1.2-10.7-1.92-17.83-3.61Z"/>
        <path class="cls-5" d="M36.21,33.39c-4.96-9.13-7.16-13.65-10.25-22.76,1.75.1,2.62.14,4.37.23,1.52,4.85,2.46,7.25,4.62,12.02.5,1.12,1.01,2.26,1.54,3.4.53,1.15,1.05,2.31,1.57,3.48.06,0,.1.01.16.02.1-1.1.2-2.2.31-3.29.11-1.09.24-2.17.4-3.24.71-4.56,1.09-6.9,2.39-11.88,1.66.07,2.49.1,4.14.16-2.6,9.76-2.64,13.98-3.81,22.49-2.18-.23-3.27-.36-5.44-.63Z"/>
        <path class="cls-5" d="M65.44,36.3c-2.23-.13-4.37-.74-6.36-1.76-1.99-1.02-3.74-2.45-5.21-4.28-1.47-1.83-2.51-4.02-3.06-6.61-.53-2.52-.42-4.71.26-6.56.68-1.85,1.76-3.29,3.16-4.31,1.4-1.01,2.97-1.51,4.65-1.46,1.86.06,3.44.63,4.82,1.7,1.38,1.07,2.52,2.52,3.53,4.3,1.01,1.78,1.84,3.78,2.5,5.97.17.55.31,1.07.43,1.56.12.5.21.9.27,1.22-6.53,0-9.84-.31-16.02-.63-.38-1.55-.56-2.33-.86-3.91,4.92.24,7.49.47,12.64.56-.22.5-.33.75-.55,1.25-.65-2.36-1.45-4.19-2.51-5.44-1.06-1.25-2.3-1.92-3.8-1.98-1.06-.04-2,.22-2.74.83-.74.6-1.27,1.51-1.55,2.71-.28,1.2-.24,2.68.16,4.43.42,1.81,1.1,3.29,2,4.48.9,1.18,1.92,2.06,3.21,2.73,1.29.67,2.68,1.05,4.15,1.13,1.12.06,2.1-.06,2.92-.37.82-.31,1.6-.77,2.31-1.36,1.19,1.35,1.81,2.02,3.07,3.34-.81.78-1.85,1.42-3.11,1.91-1.26.49-2.7.66-4.34.56Z"/>
        <path class="cls-5" d="M80.99,35.73c-4.53-8.9-7.1-13.19-7.97-23.6,1.46,0,2.19,0,3.65-.01.29,1.56.47,2.32.91,3.82.06,0,.09,0,.16,0,.67-1.23,1.51-2.29,2.49-3.17.98-.88,2.22-1.33,3.68-1.35,2.17-.03,3.83.87,5.21,2.58,1.38,1.71,2.56,4.06,3.86,6.95,2.49,5.54,4.4,8.03,8.11,13.07-2.06.23-3.09.34-5.16.55-3.31-4.93-5.01-7.37-7.31-12.7-.78-1.82-1.52-3.19-2.34-4.08-.82-.89-1.86-1.33-3.16-1.29-.94.02-1.71.32-2.3.9-.59.58-1.18,1.45-1.73,2.61,2,6.51,3.75,9.45,7.1,15.42-2.08.15-3.12.21-5.2.31Z"/>
        <path class="cls-5" d="M120.41,32.23c-1.73.28-3.42.05-5.07-.52-1.64-.57-3.45-1.4-5.03-2.57-1.58-1.17-3.01-2.59-4.21-4.28-2.37-3.32-3.41-5.03-4.75-8.78-2.03.08-3.05.12-5.09.19-.53-1.62-.74-2.46-1.03-4.18,2.07-.15,3.1-.22,5.16-.36-.29-3.05-.24-4.66.5-8.14,1.44,0,2.17,0,3.61,0-.49,3.44-.43,5.03.11,8.03,3.47-.13,5.21-.22,8.63-.39.31,1.7.54,2.51,1.12,4.1-3.38.25-5.12.38-8.57.57,1.35,3.66,2.4,5.34,4.76,8.58.78,1.07,1.61,1.93,2.44,2.59.83.66,1.69,1.12,2.56,1.38.87.26,1.8.32,2.77.18.75-.11,1.37-.27,1.87-.49.5-.21.93-.48,1.3-.78,1.3,1.2,1.96,1.78,3.28,2.95-.5.4-1.07.77-1.73,1.13-.66.35-1.53.62-2.63.81Z"/>
        <path class="cls-5" d="M134.35,29.3c-1.63.45-3.32.17-5.09-.88-1.77-1.05-3.62-2.73-5.22-5.1-3.07-4.55-4.43-6.9-5.41-12.39,1.73-.1,2.59-.16,4.31-.27.83,5.04,1.98,7.23,4.61,11.45.89,1.44,1.85,2.42,2.74,2.99.89.57,1.85.72,2.88.49.69-.16,1.18-.49,1.52-1,.33-.5.54-1.27.7-2.31-2.6-4.46-3.79-6.76-4.47-12.15,1.7-.11,2.55-.17,4.26-.28.78,7.68,3.04,10.63,6.81,16.78-1.07.3-1.6.45-2.65.75-.77-.98-1.15-1.47-1.91-2.47-.05.01-.07.02-.12.03-.14,1.04-.39,1.95-.8,2.72-.41.77-1.09,1.31-2.13,1.6Z"/>
        <path class="cls-5" d="M148.31,24.99c-2.87-5.75-4.67-8.51-5.12-15.63,1.43-.09,2.15-.13,3.6-.2.24,1.55.41,2.29.84,3.73.05,0,.07,0,.11,0,.68-1.38,1.75-2.47,3.1-3.24,1.35-.76,2.87-1.15,4.5-1.18.78-.02,1.45.03,2.02.13.57.1,1.14.26,1.7.47-.29,1.29-.4,1.92-.59,3.15-.64-.15-1.21-.26-1.7-.32-.49-.06-1.09-.08-1.82-.06-1.29.04-2.51.38-3.61,1.07-1.11.68-1.97,1.83-2.45,3.4,1.01,3.33,1.75,4.86,3.12,7.93-1.53.26-2.27.42-3.7.76Z"/>
        <path class="cls-5" d="M176.21,23.54c-1.77.04-3.42-.22-5-.77-1.58-.55-2.95-1.36-4.1-2.43-1.15-1.07-1.96-2.4-2.31-4.01-.35-1.58-.13-2.99.63-4.2.76-1.21,1.9-2.19,3.35-2.88,1.45-.69,3.04-1.06,4.75-1.08,1.89-.03,3.51.27,4.87.87,1.36.61,2.43,1.44,3.22,2.49.78,1.05,1.24,2.25,1.37,3.59.03.34.04.66.04.96,0,.31-.03.56-.06.75-5.85.27-8.84.3-14.79.42-.2-.96-.3-1.45-.48-2.43,4.9-.1,7.36-.14,12.22-.31-.3.32-.45.48-.74.8-.18-1.45-.72-2.55-1.64-3.28-.92-.73-2.13-1.08-3.63-1.05-1.06.02-1.99.24-2.79.65-.79.41-1.38,1.01-1.76,1.79-.37.77-.46,1.71-.25,2.8.22,1.13.68,2.03,1.36,2.73.68.7,1.53,1.22,2.54,1.56,1.01.34,2.13.5,3.36.47.94-.02,1.8-.15,2.57-.39.77-.24,1.54-.55,2.3-.95.65.81.97,1.2,1.59,2-.88.52-1.88.96-3,1.31-1.12.35-2.32.54-3.61.57Z"/>
        <path class="cls-5" d="M193.5,22.28c-1.05.16-1.97.11-2.78-.14-.81-.25-1.46-.66-1.95-1.21-.49-.56-.75-1.25-.77-2.07-.05-1.56.84-2.84,2.75-3.83,1.91-.99,4.96-1.87,9.58-2.52-.03-.48-.2-.91-.51-1.29-.31-.38-.77-.65-1.4-.83-.63-.18-1.44-.24-2.45-.16-.7.05-1.39.16-2.07.34-.67.18-1.34.41-1.99.68-.66.28-1.3.57-1.94.89-.69-.87-1.04-1.32-1.76-2.22.74-.4,1.56-.77,2.45-1.12.9-.35,1.85-.64,2.85-.87,1-.23,2.04-.37,3.11-.42,1.75-.08,3.23.07,4.43.47,1.2.4,2.13,1,2.76,1.81.63.81.94,1.79.88,2.97-.15,3.03-.35,4.51-.92,7.44-1.47.21-2.2.32-3.65.56-.01-.61-.02-.92-.05-1.54-.05,0-.07.01-.12.02-1.09.68-2.12,1.33-3.2,1.92-1.08.58-2.15.97-3.24,1.13ZM194.9,19.63c.83-.12,1.65-.4,2.46-.83.81-.43,1.62-.96,2.55-1.56.15-1.11.21-1.66.3-2.78-2.24.35-3.8.76-5,1.15-1.2.39-2.05.79-2.53,1.24-.48.44-.72.91-.73,1.4,0,.41.12.74.39.97.27.23.62.38,1.06.44.44.06.94.05,1.5-.03Z"/>
        <path class="cls-5" d="M207.47,19.78c4.52-6.78,6.27-10.07,8.34-16.7h5.17c4.41,6.45,5.92,9.33,8.79,15.12-1.97.04-2.96.08-4.93.17-1.22-3.07-1.88-4.63-3.48-7.89-.38-.81-.8-1.65-1.26-2.53-.46-.88-.91-1.76-1.36-2.64-.06,0-.09,0-.15,0-.24.89-.52,1.79-.83,2.7-.31.91-.66,1.79-1.04,2.65-1.52,3.45-2.45,5.17-4.61,8.65-1.87.18-2.8.27-4.64.47ZM212.95,15.02c.08-.89.11-1.33.15-2.22,4.74-.28,7.13-.41,11.91-.55,0,.84-.01,1.27-.05,2.1-4.82.18-7.24.33-12.01.68Z"/>
        <path class="cls-5" d="M235.77,18.19c.25-4.41.23-6.65-.38-11.25,1.45,0,2.18,0,3.63.03.3,1.05.44,1.57.69,2.62.05,0,.07,0,.12,0,.86-.92,1.93-1.62,3.25-2.09,1.32-.47,2.79-.68,4.36-.65.75.01,1.41.07,1.97.16.56.09,1.12.23,1.66.41-.23.97-.36,1.45-.62,2.4-.61-.15-1.15-.26-1.61-.34-.47-.07-1.04-.11-1.75-.15-1.27-.06-2.48.13-3.65.55-1.17.42-2.19,1.18-3.1,2.26.14,2.52.15,3.76.07,6.23-1.84-.1-2.77-.13-4.62-.17Z"/>
        <path class="cls-5" d="M268.33,21.84c-1.84-.31-3.3-.78-4.38-1.41-1.08-.63-1.86-1.37-2.34-2.25-.48-.88-.73-1.85-.77-2.94-.08-2.14-.13-3.21-.3-5.37-1.95-.1-2.93-.14-4.88-.22-.08-.88-.13-1.33-.23-2.21,2.03,0,3.05,0,5.08.02.07-1.64.08-2.47.1-4.13,1.44,0,2.16,0,3.61,0,.2,1.71.28,2.57.42,4.26,3.36.12,5.03.19,8.39.34.06,1.08.09,1.62.14,2.7-3.34-.24-5-.35-8.34-.53.15,2.22.2,3.32.26,5.53.02.73.17,1.34.45,1.86.28.52.73.93,1.34,1.24.62.31,1.43.55,2.43.7.79.12,1.5.18,2.14.19.64,0,1.25-.03,1.84-.11.33,1.03.5,1.54.82,2.59-.81.06-1.68.09-2.61.08-.93,0-1.99-.12-3.17-.32Z"/>
        <path class="cls-5" d="M287.18,25.94c-1.69-.45-3.31-1.11-4.86-1.96-1.55-.84-2.89-1.69-4.02-2.54.73-.76,1.1-1.15,1.83-1.94,1.09.8,2.26,1.52,3.51,2.14s2.62,1.11,4.09,1.46c1.25.29,2.18.31,2.78.04.6-.27.9-.7.9-1.28,0-.29-.07-.57-.2-.84-.14-.27-.38-.54-.72-.81-.34-.27-.85-.57-1.52-.88-.66-.31-1.53-.67-2.59-1.05-2.42-.89-4.2-1.77-5.34-2.69-1.15-.92-1.74-1.93-1.77-3.09-.04-1.36.63-2.42,2.01-3.21,1.38-.79,3.36-1.15,5.94-1,1.52.09,2.96.41,4.3.98,1.34.58,2.47,1.23,3.39,1.95-.79.99-1.18,1.48-1.97,2.42-.87-.7-1.83-1.24-2.87-1.65-1.05-.4-2.1-.65-3.17-.74-.82-.08-1.47-.05-1.95.06-.48.11-.84.3-1.07.55-.23.25-.34.54-.33.87.01.57.39,1.04,1.14,1.42.75.38,1.96.85,3.64,1.44,1.95.68,3.46,1.38,4.52,2.09,1.06.71,1.79,1.47,2.2,2.24.41.77.61,1.68.61,2.69,0,1.06-.33,1.95-.98,2.64-.65.69-1.6,1.1-2.85,1.24-1.25.14-2.8-.06-4.64-.55Z"/>
      </g>
      <g>
        <path class="cls-5" d="M5.71,57.82c0-9.94,0-14.91,0-24.85,7.23,1.93,10.84,2.74,18.07,4.11.19,1.66.29,2.49.47,4.16-5.36-1.09-8.04-1.71-13.41-3.13.08,2.63.12,3.93.19,6.6,4.71,1.41,7.07,2.05,11.78,3.18.13,1.71.17,2.58.2,4.3-4.77-1.27-7.15-1.98-11.92-3.56.02,3.09,0,4.64-.07,7.73,5.73,2.34,8.59,3.37,14.32,5.19-.13,1.76-.21,2.64-.38,4.39-7.7-2.72-11.55-4.32-19.24-8.11Z"/>
        <path class="cls-5" d="M38.63,70.13c-2.05-10.38-4.17-15.8-8.75-25.06,2.08.39,3.13.58,5.21.93,2.37,4.83,3.71,7.42,5.36,12.76.38,1.25.71,2.53,1,3.83.29,1.3.52,2.61.69,3.94.07.02.11.02.18.04.53-1.17,1.03-2.34,1.5-3.5.47-1.16.93-2.31,1.36-3.45,1.88-4.82,2.28-7.28,3.03-11.8,1.98.22,2.97.32,4.94.5-1.36,8.85-3.5,14.29-8.65,23.24-2.35-.53-3.53-.81-5.88-1.43Z"/>
        <path class="cls-5" d="M70.02,76.23c-2.55-.31-4.6-1.17-6.17-2.45-1.58-1.27-2.7-3-3.46-5.17-.76-2.16-1-4.7-.95-7.59.05-2.82.37-5.16,1.07-7.06.71-1.9,1.82-3.1,3.3-3.99,1.49-.89,3.26-1.24,5.41-1.09,2.38.16,4.54.74,6.54,1.7,2,.96,3.74,2.25,5.13,3.94,1.4,1.69,2.34,4.03,2.45,6.56.03.63,0,1.24-.05,1.81-.06.58-.14,1.06-.23,1.43-8.27.24-12.56-.48-19.84-1.13.11-1.76.12-2.64.04-4.38,5.92.45,9.22,1.03,15.88,1.01-.42.58-.63.86-1.08,1.43-.08-2.69-1.04-4.67-2.45-6.02-1.41-1.35-3.09-1.95-5.03-2.09-1.37-.1-2.58.06-3.43.63-.86.57-1.42,1.54-1.83,2.83-.42,1.29-.6,2.91-.64,4.87-.04,2.04.11,3.76.6,5.15.48,1.39,1.09,2.4,2.28,3.27,1.19.87,2.65,1.42,4.4,1.6,1.34.14,2.62.04,3.85-.29,1.22-.33,2.5-.88,3.78-1.59.54,1.6.77,2.4,1.2,3.97-1.59.94-3.33,1.69-5.19,2.23-1.87.54-3.71.62-5.58.4Z"/>
        <path class="cls-5" d="M88.47,75.71c3.14-10.68,3.02-17.24-.87-26.46,1.89-.14,2.83-.23,4.72-.42.81,1.36,1.2,2.04,1.94,3.43.08,0,.12-.01.2-.02.73-1.27,1.6-2.37,2.64-3.31,1.04-.94,2.47-1.52,4.34-1.78,2.79-.39,5.29.06,7.45,1.39,2.17,1.33,4.24,3.56,4.9,6.99,1.26,6.58.18,10.17-2.06,16.6-2.37.49-3.56.73-5.95,1.18,2.05-6.18,3.03-9.58,2.17-15.92-.29-2.16-1.18-3.65-2.27-4.53-1.09-.88-2.49-1.1-4.18-.86-1.22.17-2.2.54-2.92,1.26-.72.73-1.46,1.79-2.35,3.21,1.61,7.33.5,11.36-1.72,18.62-2.41.3-3.62.43-6.04.63Z"/>
        <path class="cls-5" d="M131.64,67.76c-1.47.67-2.49.49-3.01-.16-.52-.65-1.17-1.69-1.35-3.22-.18-1.53-.08-3.42.06-5.66.28-4.39-.3-7.12-2.38-10.62-2.59.5-3.9.75-6.51,1.23-.83-1.52-1.28-2.27-2.25-3.72,2.6-.55,3.89-.82,6.46-1.37-1.57-2.58-2.47-3.81-4.33-6.24,1.75-.26,2.35-.32,3.6-.49,2.12,2.35,3.16,3.54,5.02,6.02,2.78-.45,4.2-.83,6.7-1.54.99,1.41,1.45,2.13,2.29,3.6-2.38.78-3.76,1.2-6.44,1.69,2.07,3.41,2.65,6.1,2.39,10.39-.09,1.42-.18,2.57-.15,3.44.02.87.2,1.45.57,1.73.37.28.97.27,1.73-.07.59-.26,1.13-.59,1.63-.97.5-.38.98-.83,1.46-1.33-.21,1.55-.38,2.32-.76,3.8-.67.66-1.39,1.29-2.16,1.91-.77.62-1.61,1.14-2.55,1.57Z"/>
        <path class="cls-5" d="M141.64,60.92c-.91,1.04-1.31,1.02-1.22-.17.08-1.18.6-3.36.92-6.43.62-5.9-.84-8.97-3.85-13.53,1.14-.46,1.68-.7,2.72-1.18,2.6,4.2,3.92,6.95,3.41,12.35-.17,1.84-.39,3.09-.39,3.73,0,.64.25.67.78.09.35-.38.75-.98,1.19-1.78.44-.8,1-1.96,1.6-3.45,1.35-5.72.38-8.78-1.97-13.28.97-.51,1.45-.77,2.44-1.27,2.96,6.42,2.64,11.45-1.23,19.21-.58.7-.85,1.05-1.4,1.74.55-1.21.81-1.83,1.25-3.09-.02.03-.04.04-.06.07-.77,1.54-1.53,2.92-2.25,4.14-.72,1.22-1.36,2.18-1.94,2.85Z"/>
        <path class="cls-5" d="M149.87,51.35c3.93-7.12,4.49-11.69,2.4-17.65.96-.38,1.46-.57,2.51-.88.51,1.28.71,1.79,1.1,3.29.03-.01.05-.02.08-.03.4-1.6,1.06-2.61,2.03-3.4.97-.79,2.15-1.15,3.48-1.21.63-.03,1.19,0,1.68.07.49.08.97.21,1.45.38-.11,1.11-.22,1.57-.37,2.84-.51-.16-.96-.25-1.34-.3-.39-.05-.86-.06-1.43-.03-1.01.06-1.96.4-2.83,1.23-.87.83-1.53,2.22-2.4,4.19-.5,3.89-1.53,5.94-3.67,9.7-1.18.62-1.71,1-2.68,1.79Z"/>
        <path class="cls-5" d="M173.24,47.05c-1.55.14-2.81-.07-3.76-.63-.95-.56-1.49-1.44-1.69-2.66-.21-1.21.02-2.74.43-4.54.4-1.76.85-3.26,1.53-4.49.68-1.23,1.63-1.99,2.82-2.59,1.19-.6,2.51-.9,3.92-.93,1.56-.03,2.87.22,3.91.74,1.03.52,1.77,1.26,2.18,2.22.42.96.49,2.19.16,3.56-.08.34-.18.67-.3.99-.12.32-.23.58-.32.79-4.49.58-6.91.58-11.67.75.3-1.07.43-1.6.59-2.67,3.88-.08,5.84-.09,9.58-.37-.32.34-.49.51-.82.85.35-1.5.15-2.6-.45-3.32-.61-.72-1.53-1.02-2.73-.99-.85.02-1.61.21-2.29.59-.68.38-1.19.99-1.64,1.79-.45.8-.77,1.8-1.04,2.99-.29,1.23-.41,2.24-.27,3.02.15.78.51,1.35,1.12,1.7.61.36,1.44.49,2.47.41.79-.06,1.56-.25,2.3-.54.75-.29,1.52-.67,2.31-1.14.12.83.17,1.23.25,2.03-.97.62-2.03,1.17-3.17,1.62-1.14.46-2.28.74-3.42.84Z"/>
        <path class="cls-5" d="M187.68,43.79c-.81.38-1.47.51-1.98.39-.5-.11-.82-.44-.95-.94-.13-.51-.03-1.19.29-2.03.59-1.6,1.69-2.96,3.32-4.15,1.63-1.19,2.35-2.48,7.31-4,.12-.44.08-.81-.11-1.09-.2-.29-.35-.44-.7-.49-.34-.05-.87.05-1.56.27-.49.16-.99.36-1.5.62-.51.26-1.04.55-1.57.89-.53.34-1.06.69-1.59,1.05-.27-.78-.43-1.17-.78-1.96.63-.42,1.31-.84,2.05-1.25.74-.41,1.5-.79,2.29-1.14.79-.35,1.57-.63,2.33-.86,1.26-.37,2.31-.55,3.4-.41,1.09.14,1.84.53,2.23,1.17.39.64.39,1.5-.03,2.61-1.08,2.84-1.68,4.25-2.94,7.07-1.63.45-2.42.68-3.99,1.18.12-.56.19-.84.31-1.41-.05.02-.07.02-.12.04-1.3.84-2.2,1.75-3.1,2.59-.9.84-1.78,1.47-2.62,1.87ZM189.59,40.92c.6-.29,1.23-.75,1.88-1.36.65-.61,1.28-1.33,2.4-2.06.45-1.05.67-1.58,1.09-2.63-2.42.77-2.89,1.53-3.8,2.11-.91.58-1.61,1.11-2.09,1.61-.48.51-.81,1.01-1,1.49-.16.41-.18.71-.08.9.1.18.29.27.57.25.28-.02.62-.12,1.03-.32Z"/>
        <path class="cls-5" d="M201.28,38.65c6.32-6.92,9.27-10.17,13.99-16.58,2.2-.22,3.3-.31,5.52-.48,2.34,5.67,3.25,8.31,5.43,13.88-2.22.06-3.33.13-5.55.31-.78-2.9-1.15-4.34-1.94-7.28-.17-.73-.37-1.49-.58-2.28-.21-.78-.4-1.57-.57-2.35-.07,0-.1,0-.16.02-.58.86-1.18,1.72-1.81,2.6-.63.88-1.29,1.74-1.96,2.58-2.68,3.38-4.15,5.09-7.23,8.61-2.07.37-3.1.56-5.13.97ZM208.33,33.55c.32-.84.47-1.26.77-2.1,5.19-.78,7.85-1.13,13.15-1.52-.23.8-.34,1.2-.58,2-5.38.42-8.08.79-13.34,1.63Z"/>
        <path class="cls-5" d="M232.96,35.52c1.02-4.28,1.49-6.42,2.13-10.76,1.58.05,2.37.08,3.93.19.05,1,.06,1.5.09,2.51.05,0,.08,0,.13.01,1.16-.8,2.5-1.37,4.03-1.67,1.53-.3,3.25-.21,4.81-.02.74.09,1.38.21,1.92.36.54.15,1.06.34,1.57.58-.41.89-.62,1.33-1.05,2.2-.58-.22-1.1-.38-1.56-.5-.45-.12-1-.2-1.76-.35-1.36-.26-2.72-.25-4.08.01-1.36.26-2.66.89-3.9,1.85-.38,2.41-.61,3.61-1.08,6.01-2.06-.24-3.09-.33-5.17-.43Z"/>
        <path class="cls-5" d="M267.48,43.62c-1.9-.71-3.39-1.46-4.46-2.29-1.08-.83-1.82-1.7-2.23-2.65-.41-.95-.58-1.94-.5-3.01.16-2.09.23-3.14.34-5.23-1.95-.42-2.92-.61-4.86-.97.06-.85.08-1.28.12-2.14,2.02.29,3.02.45,5.04.79.29-1.55.43-2.33.68-3.91,1.4.24,2.1.36,3.5.62-.03,1.66-.05,2.49-.12,4.15,3.32.74,4.97,1.16,8.29,2.09-.03,1.06-.04,1.59-.07,2.65-3.33-1.02-4.99-1.48-8.32-2.3-.1,2.17-.16,3.25-.3,5.41-.05.71.05,1.35.3,1.91.24.56.67,1.06,1.29,1.49.61.44,1.44.84,2.47,1.21.8.29,1.54.52,2.2.67.66.15,1.29.26,1.91.33.29,1.1.43,1.65.72,2.76-.84-.14-1.75-.33-2.72-.55-.97-.23-2.06-.58-3.28-1.03Z"/>
        <path class="cls-5" d="M286.91,52.81c-1.75-1.01-3.41-2.17-4.99-3.48-1.58-1.3-2.94-2.52-4.07-3.68.79-.55,1.18-.84,1.96-1.41,1.09,1.1,2.27,2.15,3.54,3.16,1.27,1,2.67,1.92,4.18,2.75,1.28.71,2.24,1.05,2.86.99.62-.06.93-.38.93-.96,0-.29-.07-.59-.2-.91-.14-.32-.38-.67-.73-1.06-.35-.39-.86-.86-1.53-1.39-.67-.54-1.55-1.18-2.62-1.9-2.44-1.66-4.22-3.05-5.35-4.29-1.13-1.24-1.67-2.39-1.65-3.53.03-1.35.75-2.2,2.16-2.59,1.41-.39,3.38-.17,5.92.79,1.5.57,2.91,1.36,4.23,2.39,1.32,1.03,2.43,2.09,3.35,3.14-.79.7-1.18,1.04-1.97,1.71-.87-1.01-1.82-1.88-2.85-2.64-1.04-.75-2.09-1.34-3.15-1.78-.82-.33-1.47-.51-1.95-.55-.48-.04-.85.04-1.09.22-.24.18-.36.43-.37.76,0,.57.36,1.14,1.1,1.75.74.61,1.95,1.45,3.64,2.59,1.95,1.32,3.47,2.55,4.54,3.65,1.07,1.09,1.81,2.12,2.22,3.05.41.93.62,1.91.62,2.92,0,1.06-.33,1.83-1,2.27-.67.44-1.65.5-2.94.19-1.29-.31-2.89-1.05-4.79-2.14Z"/>
      </g>
      <g>
        <path class="cls-5" d="M5.71,87.71v-24.85c7.23,4.08,10.84,5.82,18.07,8.78-.24,1.72-.37,2.58-.63,4.28-5.05-2.28-7.57-3.56-12.61-6.45-.12,2.65-.19,3.98-.31,6.62,4.01,2.69,6.01,3.9,10.01,6.1-.23,1.68-.35,2.51-.56,4.21-3.85-2.32-5.78-3.6-9.63-6.42-.13,3.07-.18,4.61-.27,7.69,4.39,3.82,6.59,5.51,10.98,8.5-.17,1.74-.25,2.62-.4,4.36-5.86-4.31-8.79-6.85-14.65-12.83Z"/>
        <path class="cls-5" d="M30.78,107.22c-1.43-10.95-1.74-16.15-3.23-26.29,1.88.81,2.83,1.2,4.71,1.92.48,5.25.55,7.85.94,13.32.08,1.28.16,2.58.24,3.91.08,1.32.14,2.66.19,4.01.06.03.08.04.14.07.49-1.1.99-2.18,1.51-3.26.52-1.07,1.08-2.13,1.66-3.17,2.53-4.39,4.08-6.52,7.17-10.97,1.79.49,2.68.72,4.47,1.14-6.42,8.77-9.24,13.12-13.32,21.61-1.79-.85-2.68-1.31-4.47-2.29Z"/>
        <path class="cls-5" d="M55.05,116.76c-2.19-.51-3.87-1.59-5.03-2.99-1.16-1.41-1.94-3.24-2.31-5.45-.36-2.2-.19-4.7.65-7.46.82-2.69,2.1-4.83,3.76-6.51,1.66-1.68,3.49-2.89,5.48-3.66,1.98-.77,4.04-.95,6.16-.6,2.34.39,4.1,1.17,5.28,2.24,1.18,1.07,1.76,2.45,1.76,4.19,0,1.74-.58,3.73-1.55,6.1-.24.59-.49,1.16-.74,1.71-.26.55-.48.99-.67,1.35-7.34.19-11.26-1.1-16.98-2.37.51-1.68.79-2.51,1.37-4.17,4.78.98,7.75,2.06,13.8,2.23-.64.53-.96.79-1.58,1.31.99-2.54,1.35-4.37.89-5.7-.46-1.33-1.61-2.12-3.44-2.44-1.29-.23-2.69-.23-3.81.27-1.12.5-2.18,1.31-3.16,2.46-.99,1.14-1.8,2.66-2.42,4.54-.64,1.94-.86,3.61-.71,5,.15,1.39.39,2.39,1.35,3.37.96.98,2.18,1.66,3.68,1.97,1.15.24,2.27.22,3.36-.03,1.09-.25,2.27-.77,3.48-1.43.26,1.56.4,2.33.71,3.89-1.42.91-2.94,1.64-4.57,2.13-1.63.49-3.19.44-4.79.07Z"/>
        <path class="cls-5" d="M71.07,116.53c2.62-10.71,5.26-15.71,10.44-25.5,1.87-.19,2.81-.31,4.68-.58-.64,1.44-.96,2.15-1.6,3.58.08-.01.12-.02.19-.03,1.79-1.36,3.62-2.57,5.48-3.64,1.86-1.07,3.73-1.79,5.59-2.2,2.77-.6,4.27-.26,4.47,1.04.2,1.3-.84,3.28-2.63,6.42-3.44,6.04-4.66,9.19-6.5,15.65-2.03.73-3.06,1.09-5.11,1.74,1.69-6.2,2.8-9.24,5.85-15.08,1.04-1.99,1.61-3.26,1.49-3.98-.11-.73-.96-.9-2.56-.55-1.15.25-2.34.74-3.55,1.46-1.21.73-2.68,1.76-4.38,3.1-3.59,6.6-4.77,10.38-6.61,17.67-2.09.44-3.14.62-5.25.9Z"/>
        <path class="cls-5" d="M109.93,104.3c-1.86,1.08-3.28,1.07-4.07.58-.8-.48-1.25-1.38-1.15-2.75.1-1.37.62-3.1,1.67-5.14,2.06-4.01,3.43-5.91,6.23-9.54-2.39.76-3.6,1.14-6.04,1.88,1.13-1.57,1.7-2.36,2.84-3.95,2.65-.83,3.97-1.25,6.58-2.08,2.41-2.86,3.63-4.29,5.88-7.3,1.85-.47,2.39-.63,3.57-1.03-1.94,2.89-3.01,4.26-5.14,6.99,2.93-1.04,4.46-1.85,6.9-3.38-1.17,1.54-1.76,2.3-2.92,3.83-2.51,1.6-4.09,2.45-7.13,3.55-2.78,3.54-4.15,5.41-6.2,9.32-.68,1.29-1.05,2.33-1.17,3.09-.12.76.06,1.23.51,1.38.45.15,1.22-.02,2.18-.58.75-.44,1.42-.92,2.04-1.44.62-.52,1.22-1.09,1.82-1.71-.36,1.39-.51,2.09-.75,3.49-.77.84-1.6,1.68-2.51,2.51-.91.83-1.93,1.59-3.12,2.28Z"/>
        <path class="cls-5" d="M121.83,93.35c-.94,1.66-1.55,2.04-1.55,1.15,0-.89.51-2.82,1.92-5.65,2.7-5.43,4.87-7.82,8.63-12.79.99-.95,1.42-1.44,2.21-2.44-3.52,4.57-5.55,6.74-8.18,11.7-.89,1.69-1.33,2.78-1.44,3.23-.11.45.13.2.66-.74.35-.63.76-1.45,1.25-2.44.49-.99,1.13-2.33,2.01-3.98,2.78-5.34,5.05-7.7,9.02-12.57.67-1.04,1-1.57,1.71-2.61-5.84,6.93-8.92,10.49-11.88,18.35-.59,1.11-.86,1.67-1.4,2.78.41-1.19.64-1.78,1.14-2.95-.02.05-.04.07-.06.11-.81,1.76-1.52,3.41-2.18,4.94-.66,1.53-1.25,2.85-1.85,3.91Z"/>
        <path class="cls-5" d="M130.38,78.38c2.98-7.24,6-10.52,11.67-16.92.85-.79,1.3-1.18,2.32-1.84-1.15,1.33-1.72,1.99-2.85,3.3.03-.02.05-.03.08-.05,1.81-1.69,3.56-3.12,5.34-4.19,1.78-1.07,3.38-1.6,4.79-1.82.67-.1,1.21-.14,1.63-.1.41.03.78.12,1.1.27-1.28,1.2-1.93,1.8-3.22,3-.44-.09-.84-.13-1.22-.14-.38,0-.89.04-1.53.15-1.16.19-2.55.68-4.17,1.66-1.62.98-3.45,2.47-5.41,4.53-2.72,3.6-3.72,5.46-5.33,9.29-1.45,1-2.08,1.61-3.2,2.87Z"/>
        <path class="cls-5" d="M160.26,70.82c-1.99.26-3.73.13-5.14-.36-1.41-.49-2.36-1.31-2.75-2.44-.39-1.14-.1-2.57.97-4.27,1.04-1.66,2.57-3.08,4.29-4.29,1.72-1.21,3.48-2.17,5.28-2.89,1.79-.72,3.42-1.15,4.92-1.3,1.66-.17,2.86-.05,3.63.36.78.41,1.16,1.05,1.16,1.95,0,.89-.35,1.98-1.06,3.32-.18.33-.36.66-.54.97-.18.31-.34.57-.47.78-5.57,1.21-8.65,1.35-14.68,1.89.57-1.02.9-1.53,1.56-2.54,4.78-.4,7.19-.54,11.73-1.29-.49.36-.73.54-1.22.9.81-1.46,1.08-2.46.76-3.06-.32-.6-1.14-.83-2.5-.69-.97.1-1.96.37-3,.81-1.04.44-2.05,1.05-3.03,1.83-.98.78-1.88,1.75-2.55,2.88-.69,1.17-.92,2.13-.73,2.85.19.72.73,1.24,1.58,1.53.85.29,1.95.36,3.27.19,1.01-.13,1.97-.38,2.89-.73.92-.36,1.85-.81,2.81-1.35.26.77.4,1.15.73,1.9-1.11.73-2.34,1.38-3.69,1.94-1.35.56-2.76.94-4.22,1.13Z"/>
        <path class="cls-5" d="M178.51,65.33c-.99.62-1.87.92-2.61.95-.74.03-1.28-.2-1.58-.65-.31-.44-.33-1.1-.04-1.94.55-1.6,1.96-3.07,4-4.59,2.04-1.52,2.96-3.79,8.43-6.17.16-.44.14-.77-.04-.99-.19-.23-.3-.24-.62-.12-.32.12-.82.43-1.54.9-.5.33-1.04.69-1.61,1.09-.57.4-1.17.84-1.8,1.3-.63.46-1.28.93-1.95,1.4-.07-.65-.11-.99-.16-1.68.79-.55,1.62-1.1,2.47-1.68.85-.58,1.68-1.14,2.5-1.7.82-.56,1.58-1.07,2.3-1.56,1.18-.8,2.14-1.37,3.29-1.45,1.15-.08,1.92.15,2.29.68.37.53.31,1.34-.21,2.46-1.33,2.86-1.79,4.28-2.35,7.22-1.8.68-2.66,1.04-4.38,1.8-.04-.56-.05-.84-.06-1.41-.05.02-.08.04-.14.06-1.31,1.04-2.22,2.25-3.19,3.39-.97,1.14-1.97,2.05-3,2.69ZM180.15,62.12c.73-.49,1.45-1.16,2.16-1.98s1.37-1.8,2.54-2.7c.34-1.07.54-1.61.99-2.66-2.66,1.18-3.25,2.5-4.31,3.36-1.06.86-1.89,1.55-2.45,2.15-.56.6-.93,1.15-1.09,1.64-.14.42-.12.69.05.83.17.13.45.15.81.04.37-.11.8-.33,1.29-.66Z"/>
        <path class="cls-5" d="M193.75,57.47c5.21-7.53,9.37-10.93,15.62-17.48,2.47-.4,3.71-.59,6.21-.89,1.75,5.32,2.27,7.88,6.07,13.6-2.5.09-3.75.18-6.24.45-1.65-2.94-2.14-4.35-2.86-7.19-.16-.71-.32-1.44-.49-2.19-.17-.75-.29-1.49-.38-2.24-.07.01-.11.02-.19.03-.75.87-1.52,1.76-2.31,2.66-.79.9-1.59,1.79-2.39,2.67-3.21,3.52-4.82,5.32-7.34,9.12-2.31.55-3.45.85-5.69,1.46ZM200.8,51.73c.27-.85.42-1.27.78-2.12,5.83-1.26,8.85-1.82,14.88-2.43-.28.81-.39,1.2-.6,2.01-6.1.63-9.16,1.21-15.07,2.53Z"/>
        <path class="cls-5" d="M229.23,52.82c.24-4.41,1.01-6.55,2.12-10.85,1.78.1,2.67.18,4.44.4-.03,1.01-.05,1.51-.08,2.52.06,0,.09.01.14.02,1.36-.73,2.92-1.18,4.68-1.31,1.76-.13,3.78.27,5.4.62.77.17,1.44.37,1.99.58.56.22,1.09.47,1.61.77-.5.83-.75,1.25-1.25,2.08-.61-.29-1.15-.52-1.62-.69-.47-.17-1.03-.31-1.87-.57-1.51-.47-3.04-.63-4.6-.52-1.56.11-3.05.63-4.49,1.52-.52,2.42-.62,3.64-.69,6.1-2.29-.39-3.45-.52-5.79-.69Z"/>
        <path class="cls-5" d="M266.26,65.38c-1.98-1.11-3.55-2.15-4.71-3.19-1.16-1.04-1.99-2.06-2.47-3.11-.48-1.04-.69-2.09-.63-3.16.13-2.1.27-3.15.48-5.24-2.04-.76-3.06-1.11-5.1-1.76.1-.85.15-1.28.25-2.13,2.11.59,3.17.91,5.28,1.62.39-1.51.58-2.26.96-3.78,1.45.49,2.18.74,3.64,1.28-.13,1.65-.2,2.47-.34,4.12,3.47,1.4,5.2,2.19,8.67,3.93-.06,1.06-.09,1.59-.15,2.65-3.49-1.84-5.23-2.66-8.72-4.14-.18,2.17-.31,3.25-.42,5.42-.04.72.08,1.38.36,2,.27.62.74,1.21,1.4,1.77.65.57,1.52,1.14,2.61,1.74.84.47,1.61.85,2.3,1.16.69.3,1.35.56,1.99.77.33,1.18.5,1.78.85,2.98-.87-.34-1.81-.74-2.81-1.18-1-.44-2.14-1.03-3.41-1.74Z"/>
        <path class="cls-5" d="M286.53,79.69c-1.82-1.56-3.57-3.24-5.23-5-1.66-1.77-3.1-3.36-4.31-4.84.8-.36,1.2-.54,2-.91,1.15,1.41,2.4,2.81,3.74,4.2,1.34,1.39,2.81,2.74,4.39,4.06,1.35,1.12,2.34,1.79,2.99,1.94.65.15.97-.07.97-.64,0-.29-.07-.62-.21-.98-.14-.36-.4-.8-.77-1.32-.37-.51-.91-1.16-1.61-1.92-.71-.76-1.63-1.69-2.75-2.76-2.57-2.45-4.45-4.36-5.63-5.93-1.18-1.57-1.74-2.88-1.7-4.02.05-1.35.83-2.01,2.32-1.99,1.49.02,3.55.83,6.21,2.63,1.57,1.06,3.04,2.34,4.42,3.84,1.38,1.51,2.54,2.97,3.5,4.37-.82.41-1.24.6-2.07.98-.91-1.32-1.9-2.54-2.99-3.65-1.09-1.11-2.19-2.05-3.3-2.84-.86-.6-1.54-.99-2.05-1.17-.51-.19-.89-.23-1.15-.12-.25.11-.38.33-.39.65-.02.57.36,1.25,1.14,2.09.78.84,2.05,2.06,3.82,3.77,2.05,1.97,3.65,3.75,4.78,5.23,1.12,1.48,1.9,2.79,2.34,3.87s.65,2.14.65,3.15c0,1.06-.35,1.7-1.05,1.9-.7.2-1.72-.11-3.07-.86-1.35-.76-3.01-2.04-4.99-3.74Z"/>
      </g>
      <g>
        <path class="cls-5" d="M5.71,117.6v-24.85c5.56,6.23,8.33,8.9,13.89,13.45-.11,1.75-.16,2.63-.24,4.39-3.95-3.46-5.92-5.4-9.87-9.77-.04,2.68-.06,4.02-.08,6.7,3.27,4,4.91,5.82,8.19,9.12-.05,1.74-.07,2.61-.11,4.35-3.24-3.46-4.87-5.36-8.11-9.54-.02,3.1-.03,4.65-.04,7.75,3.91,5.53,5.86,7.99,9.76,12.37-.02,1.78-.03,2.67-.05,4.44-5.33-6.26-8-9.91-13.33-18.42Z"/>
        <path class="cls-5" d="M28.52,145.82c-1.87-9.65-3.7-19.31-5.46-28.98,1.5,1.23,2.24,1.82,3.74,2.93.93,5.81,1.42,8.77,2.45,14.76.23,1.4.46,2.82.69,4.26.23,1.44.44,2.89.65,4.34.05.04.07.06.12.1.28-1.07.56-2.14.84-3.19.29-1.06.59-2.1.9-3.12,1.38-4.33,2.11-6.57,3.76-11.13,1.42.77,2.13,1.12,3.55,1.78-3.4,9.11-4.63,13.54-7.18,21.68-1.63-1.28-2.44-1.97-4.07-3.43Z"/>
        <path class="cls-5" d="M51.04,160.23c-2.21-.82-3.95-2.21-5.19-3.89-1.24-1.67-2.2-3.76-2.89-6.21-.68-2.44-.98-5.13-.83-8.06.14-2.86.67-5.13,1.59-6.88.92-1.74,2.07-2.95,3.43-3.67,1.36-.71,2.96-.75,4.86-.18,2.1.63,3.8,1.62,5.2,2.88,1.4,1.26,2.42,2.84,3.07,4.84.65,1.99.91,4.27.79,6.85-.03.65-.08,1.26-.15,1.85-.07.59-.14,1.07-.21,1.45-7.18-.08-11.12-2.03-16.05-4.13.08-1.78.13-2.67.23-4.45,4.03,1.63,6.85,3.27,12.65,3.77-.43.55-.65.83-1.08,1.37.14-2.75-.22-4.84-1.06-6.41-.84-1.57-2.09-2.55-3.76-3.07-1.18-.37-2.42-.5-3.17-.02-.75.48-1.38,1.32-1.88,2.54-.5,1.22-.8,2.82-.91,4.82-.11,2.07.05,3.88.44,5.41.4,1.53.71,2.65,1.8,3.84,1.1,1.2,2.39,2.09,3.88,2.59,1.14.39,2.21.48,3.2.31.99-.17,2.04-.67,3.06-1.31.68,1.7,1.03,2.54,1.73,4.21-1.21.91-2.58,1.59-4.11,1.99-1.53.4-3.04.16-4.66-.44Z"/>
        <path class="cls-5" d="M67.21,161c-.13-9.29.1-18.81,1.08-28.06,1.71-.23,2.56-.38,4.26-.73-.01,1.63,0,2.45.02,4.1.07-.02.11-.02.18-.04,1.15-1.59,2.41-3.01,3.76-4.29,1.35-1.27,2.88-2.17,4.55-2.71,2.5-.81,4.19-.53,5.18.96.99,1.49,1.37,3.98,1.26,7.55-.21,6.84-.11,10.31.12,17.22-2.05.88-3.08,1.3-5.16,2.07-.17-6.61-.25-9.92-.05-16.48.07-2.23-.15-3.76-.71-4.6-.55-.84-1.56-1.01-3.03-.56-1.06.32-2.04.91-2.91,1.78-.87.87-1.86,2.08-2.94,3.64-.39,7.63-.36,11.5-.26,19.21-2.13.48-3.2.67-5.35.94Z"/>
        <path class="cls-5" d="M107.24,145.82c-2.08,1.57-3.86,1.78-5.13,1.44-1.28-.34-2.2-1.29-2.79-2.78-.59-1.49-.91-3.38-.93-5.68-.04-4.51,0-6.76.28-11.21-2.16,1-3.26,1.51-5.48,2.49.12-1.9.2-2.85.4-4.74,2.31-1.11,3.46-1.68,5.71-2.81.61-3.45.98-5.16,1.9-8.53,1.57-.68,2.29-.94,3.76-1.57-.66,3.22-.89,4.85-1.24,8.14,3.55-1.62,5.42-2.85,8.25-5.18-.17,1.85-.23,2.78-.31,4.65-2.85,2.43-4.75,3.71-8.34,5.42-.26,4.36-.28,6.57-.21,10.99.02,1.46.21,2.6.55,3.4.34.8.87,1.24,1.59,1.3.72.05,1.7-.28,2.76-1.11.83-.65,1.53-1.32,2.13-2.03.6-.71,1.14-1.47,1.65-2.28.39,1.46.59,2.18,1.01,3.62-.67,1.1-1.43,2.2-2.3,3.31-.87,1.11-1.93,2.16-3.26,3.17Z"/>
        <path class="cls-5" d="M119.46,129.98c-.77,2.38-1.6,3.22-2.26,2.51-.66-.71-1.16-2.69-1.29-5.86-.26-6.08-.28-9.12.25-15.07,1.07-1.44,1.51-2.18,2.31-3.69-.53,5.45-.54,8.23-.36,13.8.06,1.89.26,3.04.51,3.4.26.36.63-.14,1.06-1.51.28-.91.51-2.01.7-3.28.19-1.27.38-2.94.59-4.98-.16-5.91-.13-8.88.6-14.67.61-1.57.9-2.37,1.58-3.94-1.18,8.23-1.02,12.5-.52,20.87-.47,1.59-.67,2.39-1.08,3.99-.13-1.23-.19-1.85-.3-3.09-.02.07-.03.1-.04.16-.2,2.15-.41,4.2-.66,6.13-.26,1.94-.59,3.69-1.08,5.21Z"/>
        <path class="cls-5" d="M126.42,108.69c-.39-7.67-.46-11.59.82-19.15.93-1.2,1.44-1.78,2.61-2.79-.16,1.54-.21,2.32-.26,3.87.04-.03.06-.05.1-.08.94-2.16,2.15-4.03,3.73-5.45,1.58-1.42,3.27-2.14,4.99-2.51.82-.18,1.53-.26,2.12-.25.59,0,1.17.07,1.73.2-.58,1.41-.85,2.12-1.35,3.55-.67-.06-1.25-.07-1.76-.05-.51.03-1.16.13-1.93.31-1.38.33-2.79,1-4.15,2.3-1.36,1.31-2.49,3.24-3.41,5.75-.19,4.06-.13,6.1.1,10.14-1.56,1.46-2.2,2.34-3.32,4.16Z"/>
        <path class="cls-5" d="M160.08,96.44c-2.25.47-4.39.51-6.35.16-1.97-.35-3.58-1.1-4.79-2.22-1.21-1.12-1.87-2.63-1.92-4.5-.05-1.83.5-3.48,1.59-4.93,1.09-1.45,2.52-2.62,4.22-3.52,1.7-.9,3.49-1.47,5.33-1.75,2.04-.31,3.71-.28,5.06.07,1.35.36,2.38.98,3.12,1.89.75.92,1.19,2.07,1.35,3.5.04.36.06.7.06,1.04,0,.34,0,.62-.03.85-6.37,2.01-9.96,2.36-16.97,3.43-.07-1.11-.09-1.66-.12-2.77,5.62-.81,8.47-1.12,13.76-2.42-.34.42-.51.63-.84,1.05-.15-1.57-.65-2.64-1.57-3.24-.92-.61-2.18-.77-3.82-.51-1.16.19-2.21.55-3.15,1.1-.94.55-1.7,1.29-2.24,2.2-.55.92-.81,2-.74,3.23.07,1.28.47,2.29,1.2,3.01.73.72,1.71,1.2,2.92,1.42,1.21.22,2.58.18,4.09-.13,1.15-.24,2.18-.59,3.09-1.05.91-.46,1.79-1.03,2.65-1.69.82.73,1.23,1.08,2.08,1.77-.97.87-2.12,1.68-3.47,2.4-1.35.72-2.85,1.26-4.5,1.6Z"/>
        <path class="cls-5" d="M180.34,87.82c-1.06.91-2.11,1.46-3.1,1.68-.99.22-1.85.13-2.53-.22-.68-.35-1.13-.98-1.31-1.85-.34-1.65.47-3.35,2.18-5.3,1.71-1.95,2.64-5.3,8.16-8.58-.13-.44-.41-.76-.84-.94-.43-.18-.74-.06-1.23.22-.49.28-1.12.8-1.92,1.5-.56.49-1.13,1.02-1.7,1.58-.57.56-1.14,1.14-1.72,1.75-.58.61-1.16,1.22-1.75,1.82-.68-.6-1.01-.92-1.65-1.58.71-.69,1.48-1.41,2.29-2.17.81-.76,1.65-1.52,2.5-2.3.85-.78,1.69-1.52,2.51-2.26,1.35-1.22,2.52-2.17,3.97-2.45,1.45-.28,2.6-.18,3.45.28s1.37,1.26,1.57,2.41c.5,2.96.9,4.43,1.89,7.3-1.82.93-2.68,1.42-4.39,2.45-.38-.52-.56-.79-.92-1.32-.05.03-.08.05-.14.08-1.02,1.22-1.7,2.76-2.5,4.23-.8,1.47-1.75,2.7-2.85,3.65ZM180.73,84.29c.78-.73,1.45-1.64,2.03-2.71s1.04-2.32,1.95-3.4c-.28-1.09-.41-1.63-.63-2.73-2.66,1.62-3.25,3.56-4.24,4.74-.99,1.18-1.71,2.07-2.08,2.8-.37.73-.5,1.34-.39,1.84.1.43.32.68.66.75.34.07.75,0,1.21-.22.46-.22.96-.58,1.49-1.07Z"/>
        <path class="cls-5" d="M195.65,76.92c1.88-7.79,3.51-11.7,8.11-18.83,2.73-.6,4.11-.87,6.89-1.31,4.11,5.35,7.11,8.07,13.58,13.62-2.57.12-3.86.26-6.44.62-3.16-2.8-4.64-4.21-7.2-7.06-.61-.71-1.22-1.45-1.83-2.2-.61-.75-1.14-1.51-1.6-2.27-.08.02-.12.02-.2.04-.46.94-.9,1.9-1.32,2.87-.42.97-.82,1.93-1.21,2.88-1.55,3.79-2.14,5.74-3,9.64-2.35.75-3.51,1.16-5.77,1.99ZM200.52,70.63c-.21-.87-.31-1.31-.48-2.18,6.14-1.78,9.36-2.57,15.77-3.42.18.83.27,1.24.49,2.07-6.42.88-9.64,1.7-15.78,3.54Z"/>
        <path class="cls-5" d="M232.03,70.55c-1.51-4.34-2.07-6.59-2.58-11.05,1.95.15,2.92.27,4.84.59.33,1.05.5,1.58.88,2.63.06.01.09.02.15.03,1.09-.68,2.52-1.06,4.26-1.05,1.73.02,3.92.69,5.57,1.22.79.25,1.47.52,2.06.8.58.28,1.16.61,1.73.97-.26.81-.38,1.22-.61,2.03-.64-.36-1.21-.65-1.7-.88-.49-.22-1.03-.41-1.93-.78-1.61-.67-3.17-1-4.66-1.01-1.49-.01-2.78.43-3.82,1.27.56,2.48.91,3.72,1.73,6.15-2.35-.52-3.53-.7-5.93-.92Z"/>
        <path class="cls-5" d="M268.08,87.34c-1.86-1.49-3.37-2.81-4.55-4.05-1.18-1.24-2.09-2.39-2.71-3.51-.63-1.12-1.03-2.21-1.21-3.29-.34-2.12-.49-3.19-.72-5.32-2.04-1.09-3.06-1.59-5.11-2.52-.11-.87-.17-1.31-.26-2.18,2.13.88,3.19,1.36,5.32,2.41.1-1.5.16-2.25.33-3.76,1.5.74,2.25,1.12,3.75,1.94.06,1.67.11,2.51.23,4.19,3.52,2.04,5.27,3.18,8.79,5.72.05,1.07.08,1.61.15,2.68-3.49-2.63-5.24-3.81-8.73-5.92.21,2.2.34,3.3.63,5.48.1.72.32,1.41.67,2.09.35.67.85,1.35,1.52,2.04.66.69,1.51,1.43,2.53,2.24.8.63,1.52,1.18,2.17,1.63.64.45,1.26.85,1.84,1.19.43,1.26.65,1.89,1.09,3.17-.8-.54-1.66-1.14-2.58-1.79-.92-.66-1.97-1.48-3.16-2.43Z"/>
        <path class="cls-5" d="M287.1,106.62c-1.71-2.11-3.35-4.27-4.95-6.49-1.6-2.21-3-4.18-4.2-5.95.68-.16,1.02-.24,1.72-.41,1.15,1.71,2.38,3.45,3.68,5.21,1.3,1.76,2.7,3.54,4.2,5.34,1.28,1.53,2.22,2.51,2.83,2.86.61.35.91.25.9-.33,0-.29-.08-.64-.22-1.05-.14-.41-.39-.94-.75-1.56-.36-.63-.88-1.45-1.58-2.43-.69-.98-1.59-2.2-2.69-3.6-2.51-3.21-4.39-5.64-5.6-7.53-1.22-1.89-1.86-3.36-1.92-4.51-.06-1.36.62-1.84,2.07-1.42,1.45.42,3.53,1.81,6.22,4.43,1.6,1.55,3.1,3.31,4.5,5.28,1.4,1.97,2.59,3.85,3.55,5.59-.83.11-1.24.17-2.06.26-.91-1.63-1.92-3.18-3.01-4.65-1.1-1.47-2.2-2.76-3.32-3.88-.86-.86-1.54-1.45-2.04-1.79-.5-.34-.87-.48-1.11-.44-.24.04-.35.22-.34.55.02.57.42,1.37,1.21,2.43.78,1.06,2.06,2.66,3.82,4.92,2.04,2.61,3.62,4.92,4.72,6.78,1.11,1.86,1.87,3.44,2.29,4.67.42,1.23.63,2.37.63,3.38,0,1.06-.34,1.58-1,1.53-.66-.04-1.62-.7-2.88-1.89-1.26-1.2-2.81-3.01-4.67-5.3Z"/>
      </g>
      <g>
        <path class="cls-5" d="M5.71,147.49c0-9.94,0-14.91,0-24.85,5.19,8.74,7.78,12.5,12.97,19-.01,1.77-.02,2.66-.03,4.43-3.74-4.88-5.61-7.6-9.35-13.67,0,2.68-.01,4.02-.02,6.7,3.15,5.45,4.73,7.94,7.89,12.49-.02,1.74-.06,2.63-.09,4.37-3.13-4.71-4.69-7.28-7.82-12.93-.02,3.1-.03,4.64-.04,7.76,3.76,7.31,5.65,10.58,9.41,16.45-.02,1.81-.03,2.73-.06,4.52-5.14-8.32-7.7-13.13-12.84-24.28Z"/>
        <path class="cls-5" d="M27.68,184.89c-1.76-10.41-3.43-20.84-5.4-31.21,1.43,1.74,2.14,2.56,3.57,4.14,1.1,6.22,1.57,9.4,2.54,15.74.22,1.48.44,2.98.66,4.5.22,1.52.43,3.06.63,4.62.05.05.07.08.12.14.26-1.04.53-2.05.8-3.04.27-.99.57-1.96.88-2.9,1.35-3.99,2.09-6.12,3.36-10.42,1.36,1.12,2.03,1.64,3.39,2.62-2.57,8.64-4.1,12.86-6.64,20.47-1.57-1.74-2.35-2.67-3.92-4.65Z"/>
        <path class="cls-5" d="M49.67,204.61c-2.32-1.15-4.1-2.87-5.28-4.83-1.18-1.96-2.1-4.38-2.77-7.04-.67-2.66-.95-5.43-.8-8.35.14-2.85.72-5.14,1.52-6.73.8-1.59,1.81-2.61,3.02-3.11,1.22-.5,2.77-.27,4.75.58,2.19.95,4.02,2.19,5.61,3.6,1.59,1.4,2.8,3.07,3.62,5.11.81,2.04,1.06,4.45.93,7.03-.03.65-.08,1.26-.16,1.84-.07.58-.15,1.06-.23,1.44-7.63-.48-11.89-3.16-16.65-6.23.08-1.78.13-2.66.24-4.45,3.88,2.41,6.87,4.69,13.04,5.64-.46.53-.69.79-1.15,1.3.15-2.75-.2-4.99-1.16-6.67-.96-1.68-2.33-2.83-4.08-3.61-1.24-.55-2.56-.89-3.24-.53-.69.36-1.26,1.11-1.74,2.29-.49,1.18-.79,2.76-.9,4.75-.11,2.07.03,3.91.41,5.54.38,1.63.6,2.85,1.76,4.27,1.16,1.42,2.52,2.55,4.09,3.27,1.2.55,2.32.77,3.36.69,1.04-.08,2.15-.53,3.24-1.12.74,1.8,1.15,2.75,1.87,4.57-1.31.89-2.78,1.5-4.4,1.77-1.63.28-3.22-.2-4.92-1.04Z"/>
        <path class="cls-5" d="M66.8,206.6c-.14-9.56.51-19.09.55-28.65,1.8-.21,2.7-.35,4.5-.72.19,1.66.28,2.48.46,4.13.08-.02.11-.02.19-.04,1.1-1.6,2.31-3.06,3.62-4.38,1.31-1.32,2.85-2.27,4.6-2.88,2.62-.92,4.55-.72,5.82.71,1.27,1.44,1.9,3.96,1.77,7.59-.25,6.97-.03,10.66.08,17.78-2.15.99-3.24,1.46-5.44,2.33-.06-6.8-.25-10.38-.02-17,.08-2.25-.12-3.89-.79-4.7-.66-.81-1.77-.93-3.33-.43-1.12.36-2.12.98-3,1.86-.88.88-1.88,2.15-3.04,3.76-.42,7.91-.28,11.83-.31,19.74-2.26.49-3.39.67-5.67.89Z"/>
        <path class="cls-5" d="M109.44,188.76c-2.36,2.14-4.38,2.64-5.8,2.5-1.42-.14-2.33-1.24-2.96-2.84-.63-1.6-.98-3.53-.99-5.82-.03-4.51.31-6.92.15-11.37-2.25,1.18-3.39,1.77-5.71,2.92-.05-1.9-.09-2.86-.17-4.78,2.39-1.28,3.57-1.95,5.88-3.26.09-3.53.11-5.31.17-8.86,1.6-.81,2.4-1.21,4.03-2.15.23,3.38.35,5.06.54,8.41,3.95-2.36,6.04-4.1,9.05-7.38.17,1.87.24,2.8.39,4.66-3.04,3.4-5.17,5.19-9.17,7.65.2,4.36-.11,6.73-.04,11.13.03,1.46.24,2.58.63,3.36.39.78,1,1.16,1.83,1.09.82-.07,1.94-.6,3.14-1.73.94-.88,1.72-1.78,2.38-2.7.66-.92,1.26-1.88,1.8-2.9.46,1.48.69,2.32,1.1,3.75-.74,1.37-1.58,2.76-2.56,4.16-.98,1.4-2.17,2.79-3.68,4.15Z"/>
        <path class="cls-5" d="M122.54,167.44c-.67,3.17-1.49,4.59-2.13,4.09-.63-.5-1.25-2.6-1.49-5.73-.45-6-.34-9.07-.94-15.07,1.04-2,1.43-3.04,2.11-5.14.56,5.48.51,8.31.91,13.76.14,1.85.36,2.94.63,3.16.27.22.62-.57.97-2.41.23-1.22.4-2.63.52-4.2.12-1.56.21-3.54.31-5.88-.45-5.93-.41-8.71-.96-14.5.43-2.19.64-3.28,1.16-5.47.75,8.19.85,12.38,1.44,21-.4,2.12-.55,3.19-.87,5.32-.13-1.22-.17-1.9-.34-3.21-.01.09-.02.13-.03.22-.08,2.57-.23,5.08-.42,7.45-.19,2.36-.45,4.58-.88,6.6Z"/>
        <path class="cls-5" d="M128.74,139.21c-.55-7.88-.74-11.63-1.44-19.11.92-1.67,1.44-2.49,2.67-3.91.3,1.47.45,2.2.75,3.64.04-.05.06-.07.1-.11.69-2.36,1.69-4.51,3.23-6.22,1.54-1.71,3.31-2.63,5.23-3.22.92-.28,1.73-.45,2.43-.53.7-.07,1.4-.08,2.1-.02-.22,1.41-.33,2.12-.56,3.53-.79.03-1.49.1-2.08.19-.59.1-1.33.28-2.19.57-1.54.52-3.04,1.36-4.41,2.89-1.37,1.54-2.45,3.8-3.22,6.49.3,3.87.62,6.06.96,10.21-1.73,1.99-2.42,3.17-3.58,5.6Z"/>
        <path class="cls-5" d="M167.02,121.22c-2.57.74-5.04,1.02-7.33.86-2.28-.16-4.19-.81-5.72-1.84-1.53-1.02-2.48-2.39-2.87-4.12-.38-1.69-.02-3.37.87-4.85.89-1.47,2.18-2.73,3.88-3.77,1.7-1.04,3.58-1.77,5.65-2.25,2.29-.53,4.27-.72,6.01-.58,1.73.14,3.16.56,4.34,1.28,1.18.72,2,1.74,2.53,3.03.13.32.24.64.32.94.08.31.13.57.15.78-7.18,3.02-11.28,3.7-19.27,5.52-.28-1.01-.41-1.52-.65-2.56,6.38-1.4,9.62-1.98,15.56-4.01-.3.44-.45.66-.75,1.1-.52-1.42-1.37-2.37-2.64-2.81-1.26-.43-2.79-.42-4.64.02-1.3.31-2.43.77-3.37,1.4-.94.63-1.62,1.4-2.06,2.34-.44.94-.53,1.98-.22,3.11.32,1.17.97,2.05,1.9,2.68.94.64,2.12,1.02,3.56,1.11,1.43.09,3.02-.09,4.74-.58,1.31-.38,2.48-.87,3.49-1.46,1.01-.59,1.98-1.29,2.89-2.08,1.05.62,1.59.94,2.62,1.54-1.06,1.05-2.34,2.05-3.86,2.97-1.52.92-3.23,1.66-5.12,2.2Z"/>
        <path class="cls-5" d="M189.94,108.82c-1.17,1.25-2.34,2.06-3.48,2.51-1.13.45-2.12.53-2.97.28-.84-.24-1.44-.81-1.78-1.65-.65-1.6-.09-3.29,1.53-5.6,1.63-2.3,2.98-6.96,8.1-11.07-.32-.37-.75-.59-1.32-.67-.56-.07-1.02.25-1.62.76-.59.5-1.29,1.28-2.14,2.27-.59.69-1.17,1.4-1.72,2.12-.55.72-1.1,1.45-1.64,2.2-.54.74-1.08,1.47-1.64,2.2-1.03-.38-1.56-.58-2.59-1.03.65-.82,1.36-1.68,2.12-2.63.77-.94,1.57-1.91,2.4-2.93.83-1.02,1.68-2.04,2.54-3.08,1.41-1.72,2.67-3.13,4.25-3.68,1.58-.54,2.96-.65,4.12-.39,1.17.26,2.06.9,2.7,1.89,1.62,2.55,2.47,3.85,3.85,6.7-1.72,1.15-2.52,1.75-4.1,3.03-.45-.5-.68-.74-1.14-1.23-.05.04-.08.06-.13.1-.84,1.38-1.47,3.28-2.29,5.13-.82,1.85-1.85,3.45-3.07,4.75ZM190.08,104.94c.85-.99,1.56-2.18,2.13-3.52s.99-2.88,1.71-4.09c-.55-1.03-.89-1.47-1.51-2.4-2.45,2.01-3.22,4.68-4.21,6.17-.99,1.5-1.69,2.57-1.98,3.37-.29.8-.35,1.46-.14,1.94.18.41.49.62.91.6.42-.01.9-.19,1.43-.55.53-.36,1.09-.87,1.66-1.54Z"/>
        <path class="cls-5" d="M204.9,94.82c.81-8.1.6-11.16,2.42-18.3,2.76-.8,4.16-1.16,6.98-1.75,6.82,4.84,11.12,6.65,18.09,12.17-2.49.13-3.74.28-6.24.71-3.46-2.73-5.42-3.85-9.1-6.23-.89-.6-1.81-1.22-2.74-1.87-.94-.65-1.82-1.31-2.63-1.98-.08.02-.12.03-.21.05-.11.91-.2,1.83-.27,2.76-.07.93-.15,1.83-.22,2.71-.29,3.54-.25,5.26-.59,9.29-2.24.92-3.34,1.42-5.47,2.44ZM208.64,88.21c-.44-.82-.75-1.1-1.23-1.86,5.95-2.24,9.12-3.23,15.41-4.28.44.73.72,1.01,1.14,1.79-6.26,1.06-9.41,2.07-15.32,4.35Z"/>
        <path class="cls-5" d="M239.92,87.22c-1.94-4.32-3.31-6.11-5.27-10.26,1.94.2,2.91.35,4.82.78.63,1,.96,1.49,1.62,2.48.06.01.09.02.15.04.81-.54,2.02-.76,3.59-.56,1.57.21,3.76,1.19,5.25,1.88.71.33,1.34.67,1.88,1.01.55.34,1.1.72,1.65,1.15-.01.72,0,1.08.01,1.79-.6-.43-1.13-.78-1.58-1.05-.45-.27-.91-.5-1.78-1-1.56-.88-3.02-1.39-4.36-1.58-1.34-.19-2.39.09-3.11.73,1.19,2.24,1.78,3.4,2.82,5.82-2.25-.69-3.39-.93-5.7-1.23Z"/>
        <path class="cls-5" d="M272.22,108.81c-1.58-1.91-2.88-3.53-3.92-4.99-1.04-1.45-1.87-2.75-2.49-3.95-.62-1.2-1.07-2.33-1.38-3.34-.62-1.99-.93-3-1.5-5.04-1.82-1.43-2.73-2.09-4.54-3.31-.27-.83-.41-1.24-.67-2.08,1.91,1.18,2.86,1.82,4.77,3.22-.2-1.4-.28-2.11-.42-3.55,1.38.98,2.07,1.49,3.45,2.58.32,1.64.5,2.46.86,4.09,3.17,2.69,4.75,4.19,7.92,7.53.16,1.05.23,1.57.4,2.62-3.11-3.44-4.66-4.98-7.77-7.75.5,2.12.76,3.17,1.31,5.24.18.69.43,1.4.78,2.12.34.72.81,1.48,1.4,2.31.59.82,1.32,1.74,2.2,2.78.69.81,1.3,1.53,1.85,2.14.54.6,1.06,1.16,1.55,1.65.43,1.33.64,2,1.06,3.36-.67-.75-1.39-1.57-2.17-2.45-.78-.88-1.67-1.96-2.68-3.18Z"/>
        <path class="cls-5" d="M288.38,133.4c-1.45-2.68-2.85-5.37-4.22-8.06-1.37-2.69-2.58-5.05-3.64-7.14.54.05.82.08,1.38.14,1.02,2.03,2.08,4.11,3.21,6.27,1.12,2.16,2.32,4.38,3.61,6.68,1.09,1.96,1.9,3.27,2.41,3.84.52.57.77.57.76,0,0-.29-.07-.66-.2-1.12-.13-.46-.35-1.07-.66-1.82-.31-.75-.77-1.75-1.37-2.96-.6-1.21-1.39-2.72-2.35-4.47-2.2-4-3.85-6.95-4.96-9.16-1.11-2.21-1.74-3.82-1.86-4.95-.15-1.33.39-1.61,1.64-.77,1.25.84,3.11,2.81,5.54,6.26,1.44,2.04,2.8,4.28,4.07,6.71,1.27,2.43,2.34,4.72,3.2,6.81-.74-.18-1.1-.28-1.81-.47-.81-1.95-1.71-3.84-2.69-5.66-.98-1.82-1.97-3.46-2.97-4.93-.77-1.13-1.37-1.92-1.81-2.41-.44-.49-.76-.75-.96-.78-.2-.04-.29.11-.26.43.04.56.42,1.47,1.12,2.76.7,1.29,1.83,3.27,3.39,6.09,1.8,3.27,3.18,6.12,4.16,8.37.97,2.25,1.64,4.11,2,5.5.37,1.39.55,2.6.55,3.62,0,1.06-.29,1.45-.85,1.15-.56-.3-1.38-1.31-2.45-2.97-1.07-1.66-2.38-4.02-3.96-6.94Z"/>
      </g>
      <g>
        <path class="cls-5" d="M5.71,177.37c0-9.94,0-14.91,0-24.85,5.09,10.94,7.64,15.69,12.74,23.92.15,1.24.22,1.86.35,3.09-3.79-5.8-5.68-9.02-9.47-16.18.06,2.41.1,3.61.15,6.02,3.35,5.79,5.02,8.45,8.37,13.3.11,1.26.16,1.9.26,3.16-3.42-4.72-5.13-7.29-8.55-12.92.06,2.78.09,4.18.15,6.96,4.32,6.47,6.48,9.37,10.81,14.56.1,1.24.15,1.85.24,3.09-6.02-6.9-9.03-10.89-15.06-20.15Z"/>
        <path class="cls-5" d="M31.47,208.4c-3.55-7.95-5.33-12.21-8.66-21.47,1.47,1.99,2.21,2.93,3.69,4.74,1.74,4.41,2.63,6.53,4.42,10.63.41.95.82,1.9,1.23,2.85.41.94.8,1.87,1.17,2.79.06.05.08.07.14.12.16-.45.31-.89.45-1.32.14-.43.29-.83.45-1.21.7-1.59.99-2.37,1.42-3.89,1.4,1.3,2.1,1.91,3.5,3.06-.76,2.92-1.46,4.42-3.2,7.57-1.84-1.45-2.76-2.21-4.6-3.85Z"/>
        <path class="cls-5" d="M56.92,224.42c-2.43-.94-4.47-2.11-6.04-3.27-1.57-1.15-2.9-2.46-4.01-3.86-1.11-1.4-1.85-2.8-2.28-4.13-.42-1.3-.4-2.16.04-2.57.44-.41,1.17-.46,2.19-.21,1.02.25,2.5.97,4.59,1.98,2.31,1.13,4.36,2.17,6.29,2.96,1.92.79,3.53,1.54,4.81,2.4,1.27.85,2.15,1.75,2.59,2.75.11.25.19.48.24.71.05.22.07.41.06.55-8.02-.54-12.43-3.09-17.74-6.07-.27-.78-.41-1.18-.69-1.96,4.24,2.48,7.38,4.77,13.87,5.81-.34.16-.52.23-.87.38-.47-1.08-1.41-1.96-2.72-2.86-1.31-.9-2.89-1.71-4.74-2.57-1.3-.61-2.61-1.22-3.19-1.3-.58-.08-.95.05-1.14.41-.18.36-.12.97.2,1.84.33.9.82,1.78,1.51,2.61.69.83,1.22,1.41,2.56,2.32,1.34.91,2.83,1.7,4.49,2.33,1.27.48,2.41.78,3.44.94,1.03.15,2.09.07,3.1-.07,1.04.74,1.56,1.1,2.6,1.79-1.2.26-2.59.4-4.18.34-1.59-.05-3.21-.57-5-1.26Z"/>
        <path class="cls-5" d="M74.63,226.32c-1.53-4.33-2.49-6.49-4.88-10.75,1.91-.17,2.86-.31,4.75-.65.55.62.82.92,1.34,1.54.08-.01.12-.02.2-.04.88-.75,1.92-1.48,3.11-2.21,1.19-.73,2.71-1.39,4.57-2.02,2.77-.93,5-1.35,6.74-1.07,1.73.28,3,1.16,3.72,2.65,1.39,2.85,1.98,4.29,2.98,7.17-2.26.82-3.41,1.22-5.71,1.93-.93-2.67-1.47-4-2.74-6.64-.43-.9-1.12-1.44-2.03-1.63-.91-.19-2.18,0-3.83.48-1.18.35-2.18.76-2.97,1.24-.8.48-1.63,1.1-2.51,1.83,1.47,2.95,2.09,4.44,3.15,7.42-2.35.41-3.53.57-5.89.75Z"/>
        <path class="cls-5" d="M119.51,211.28c-2.49,1.75-4.63,2.32-6.27,2.61-1.63.29-2.8.05-3.69-.49-.89-.54-1.55-1.32-2-2.35-.89-2.04-1.38-3.05-2.48-5.07-2.37,1.16-3.58,1.75-6.03,2.89-.45-.83-.68-1.24-1.16-2.07,2.5-1.25,3.72-1.91,6.13-3.19-.64-1.67-.99-2.5-1.77-4.17,1.67-.9,2.58-1.44,4.45-2.67,1.08,1.57,1.59,2.36,2.52,3.93,4.48-2.79,6.86-4.79,10.31-8.59.6,1.02.89,1.53,1.43,2.56-3.5,3.7-5.9,5.65-10.41,8.37,1.13,2.08,1.63,3.13,2.53,5.22.3.69.72,1.17,1.27,1.42.55.25,1.29.26,2.23-.02.93-.27,2.13-.84,3.43-1.83,1.02-.77,1.87-1.52,2.59-2.25.72-.73,1.37-1.48,1.96-2.25.68.62,1.01.93,1.64,1.57-.81,1.02-1.72,2.07-2.78,3.13-1.05,1.06-2.33,2.15-3.92,3.27Z"/>
        <path class="cls-5" d="M135.1,193.78c-1.18,2.61-2.38,3.88-3.41,3.96-1.02.08-1.9-.83-2.65-2.75-1.44-3.68-2.33-5.51-4.5-9.14,1.21-2.3,1.68-3.49,2.5-5.9,2.23,3.63,3.15,5.47,4.66,9.16.51,1.26,1,1.86,1.5,1.83.5-.04,1.09-.84,1.71-2.46.41-1.07.71-2.25.9-3.55.18-1.29.27-2.93.23-4.92-1.89-4.68-3.09-7-6.06-11.59.54-2.5.8-3.76,1.45-6.26,4.75,7.14,6.43,10.79,8.69,18.15-.73,1.76-1.06,2.64-1.72,4.4-.4-.95-.61-1.43-1.07-2.37-.03.08-.04.12-.07.19-.06,2.07-.26,4.05-.58,5.93-.32,1.88-.84,3.65-1.59,5.32Z"/>
        <path class="cls-5" d="M145.45,170.51c-2.51-8.01-4.37-11.98-9.67-19.74,1.07-1.92,1.67-2.86,3.09-4.5,1.39,1.64,2.04,2.47,3.28,4.13.05-.05.07-.07.12-.12,0-2.66.45-5.12,1.72-7.13,1.26-2.01,3.01-3.16,5.2-3.91,1.04-.36,2-.57,2.88-.67.87-.09,1.79-.1,2.73-.03.62,1.82.89,2.73,1.37,4.56-.99.01-1.84.07-2.55.17-.71.1-1.56.31-2.53.64-1.74.59-3.21,1.6-4.37,3.37-1.16,1.76-1.6,4.22-1.63,7.21,2.28,4.52,3.18,6.81,4.59,11.4-1.93,1.64-2.75,2.62-4.21,4.63Z"/>
        <path class="cls-5" d="M185.8,155.9c-2.66.61-5.21.64-7.66.16-2.46-.49-4.6-1.47-6.5-2.93-1.9-1.46-3.35-3.39-4.48-5.82-1.09-2.37-1.53-4.55-1.21-6.54.33-1.99,1.2-3.68,2.69-5.08,1.49-1.4,3.4-2.4,5.75-3.03,2.6-.69,5.07-.9,7.42-.57,2.35.33,4.47,1.1,6.3,2.37,1.84,1.27,3.28,2.95,4.27,5.06.25.53.45,1.04.61,1.54.16.5.27.92.33,1.26-7.89,2.97-12.3,3.69-20.93,5.52-.63-1.47-.97-2.21-1.7-3.67,7.01-1.52,10.56-2.18,17.15-4.33-.22.63-.33.94-.57,1.56-1.04-2.24-2.53-3.73-4.31-4.49-1.77-.76-3.71-.85-5.78-.31-1.47.38-2.61.99-3.46,1.83-.84.84-1.29,1.9-1.38,3.17-.09,1.27.27,2.73,1.02,4.37.78,1.71,1.73,3.04,2.93,3.99,1.2.95,2.58,1.58,4.15,1.86,1.57.28,3.27.21,5.08-.23,1.39-.34,2.61-.83,3.66-1.49,1.05-.66,2.05-1.46,2.99-2.42,1.24,1.09,1.83,1.63,2.97,2.72-1.11,1.24-2.46,2.36-4.04,3.35-1.58.99-3.35,1.7-5.31,2.15Z"/>
        <path class="cls-5" d="M210.2,145.75c-1.31,1.02-2.58,1.52-3.79,1.58-1.21.06-2.27-.28-3.18-.97-.91-.69-1.58-1.73-2.03-3.11-.86-2.62-.45-5.2,1.21-8.13,1.66-2.94,4.56-8.23,8.63-12.53-.51-.88-1.12-1.55-1.83-2.02-.71-.47-1.44-.4-2.25-.05-.81.35-1.69,1.11-2.67,2.19-.69.76-1.32,1.59-1.89,2.47-.57.88-1.11,1.81-1.63,2.77-.51.96-1.03,1.92-1.54,2.87-1.55-.97-2.36-1.46-4.04-2.44.54-1.11,1.16-2.28,1.85-3.53.69-1.25,1.45-2.51,2.27-3.81.83-1.29,1.73-2.54,2.71-3.76,1.61-2,3.13-3.46,4.86-3.64,1.72-.19,3.42.32,4.98,1.46,1.56,1.14,2.92,2.91,3.96,5.26,2.68,6.05,3.59,9.12,4.69,15.3-1.37.96-2,1.46-3.26,2.53-.36-1.18-.56-1.76-.99-2.93-.04.04-.06.05-.1.09-.61,1.8-1.38,3.92-2.39,5.88-1.01,1.96-2.21,3.45-3.57,4.52ZM210.58,140.06c.97-.87,1.8-2.04,2.47-3.53s1.22-3.29,1.68-4.91c-.69-2.15-1.09-3.22-1.99-5.36-1.94,2.03-3.42,4.83-4.53,6.51-1.11,1.68-1.86,3-2.16,4.11s-.31,2.08-.03,2.93c.24.72.59,1.19,1.07,1.4.47.21,1.01.23,1.61.02.59-.21,1.22-.59,1.88-1.18Z"/>
        <path class="cls-5" d="M223.89,133.8c.59-13.04-1.54-26.11-5.95-38.38,2.58-.94,3.9-1.36,6.56-2.04,9.27,10.34,16.87,20.47,21.37,33.79-1.99.11-3,.24-4.99.61-2.47-7.38-4.13-11-8.68-18.02-1.11-1.75-2.35-3.54-3.74-5.36-1.39-1.81-2.84-3.6-4.34-5.37-.07.02-.11.04-.19.06.67,2.03,1.27,4.09,1.8,6.18.53,2.09.96,4.14,1.29,6.15,1.35,8.05,1.61,12.14,1.24,20.33-1.79.77-2.66,1.19-4.37,2.04ZM226.42,122.1c-.57-1.95-.89-2.92-1.6-4.86,4.95-2.15,7.6-3.1,12.89-4.09.58,1.98.84,2.97,1.3,4.96-5.16.97-7.75,1.9-12.59,4Z"/>
        <path class="cls-5" d="M251.9,127.4c-.85-10.81-1.95-16.18-5.9-26.71,1.73.24,2.58.42,4.27.91,1,2.42,1.46,3.64,2.29,6.07.05.02.08.02.13.04.46-1.82,1.27-2.97,2.47-3.34,1.2-.37,3.14.47,4.32,1.26.56.38,1.08.81,1.54,1.28.46.47.93,1.03,1.42,1.68.27,1.8.38,2.7.57,4.53-.49-.6-.92-1.08-1.28-1.44-.36-.36-.7-.64-1.44-1.16-1.32-.94-2.52-1.2-3.56-.81-1.04.39-1.77,1.74-2.27,3.99,1.23,5.85,1.62,8.8,2.01,14.72-1.8-.57-2.71-.76-4.56-1.01Z"/>
        <path class="cls-5" d="M277.32,145.62c-1.24-1.57-2.22-3.15-2.97-4.86-.76-1.71-1.33-3.51-1.75-5.43-.42-1.92-.72-3.93-.95-6.02-.43-4.1-.72-6.15-1.47-10.22-1.41-1.52-2.12-2.22-3.54-3.52-.36-1.76-.56-2.64-.99-4.39,1.49,1.28,2.24,1.98,3.74,3.5-.51-2.9-.81-4.33-1.49-7.19,1.14,1.2,1.71,1.83,2.85,3.16.77,3,1.11,4.5,1.71,7.52,2.51,3.01,3.76,4.69,6.27,8.42.26,1.7.38,2.55.59,4.26-2.42-3.63-3.63-5.27-6.05-8.21.65,3.97.91,5.97,1.29,9.97.12,1.32.3,2.53.55,3.63.25,1.1.58,2.11,1.02,3.04.44.93,1,1.83,1.68,2.74.53.71,1.01,1.29,1.44,1.74.42.45.83.83,1.22,1.14.3,1.89.43,2.84.69,4.72-.54-.46-1.11-.99-1.73-1.59-.62-.59-1.32-1.4-2.11-2.4Z"/>
        <path class="cls-5" d="M289.96,165.86c-1.14-2.21-2.23-4.53-3.28-7.03-1.05-2.5-1.97-4.82-2.76-7.02.46-.51.68-.75,1.13-1.18.77,2.15,1.59,4.23,2.45,6.28.86,2.05,1.79,4.05,2.78,6.04.85,1.7,1.47,2.77,1.87,3.16.4.39.6.29.59-.35,0-.32-.05-.71-.15-1.18-.1-.47-.26-1.07-.51-1.81-.24-.74-.59-1.7-1.05-2.87-.46-1.17-1.06-2.63-1.8-4.34-1.69-3.91-2.96-6.98-3.82-9.46-.86-2.49-1.37-4.54-1.51-6.18-.17-1.94.17-2.68,1.1-2.02.93.66,2.37,2.81,4.31,6.67,1.14,2.29,2.23,4.81,3.25,7.51s1.86,5.17,2.54,7.38c-.57-.26-.85-.36-1.4-.52-.63-2.03-1.34-4.04-2.11-6-.77-1.95-1.55-3.72-2.33-5.29-.6-1.2-1.07-2.03-1.41-2.51-.34-.48-.58-.7-.73-.66-.14.04-.2.28-.17.71.05.75.35,1.81.9,3.2.55,1.39,1.42,3.46,2.62,6.32,1.39,3.32,2.46,6.17,3.21,8.4.75,2.23,1.26,4.05,1.54,5.41.28,1.36.42,2.54.42,3.55,0,1.06-.22,1.51-.66,1.39-.44-.11-1.08-.83-1.91-2.08-.84-1.25-1.87-3.11-3.11-5.51Z"/>
      </g>
      <g>
        <path class="cls-5" d="M5.71,207.26v-24.85c6,8.65,9,12.4,15,18.9.08,1.24.12,1.86.2,3.11-4.39-4.55-6.59-7.08-10.99-12.7.04,2.41.05,3.61.08,6.02,3.8,4.5,5.7,6.55,9.5,10.31.06,1.27.08,1.9.13,3.17-3.84-3.63-5.76-5.61-9.59-9.95.03,2.79.05,4.18.07,6.96,4.75,4.9,7.12,7.09,11.87,11.02.05,1.24.07,1.86.11,3.1-6.55-5.17-9.83-8.16-16.38-15.1Z"/>
        <path class="cls-5" d="M33.73,230.51c-3.34-7.37-5.04-11.3-8.36-19.86,1.7,1.55,2.54,2.29,4.24,3.7,1.67,4.1,2.52,6.08,4.19,9.9.38.89.76,1.78,1.13,2.67.37.89.72,1.76,1.06,2.62.06.04.09.05.15.09.25-.51.49-1.02.73-1.51.24-.49.49-.96.75-1.41,1.14-1.88,1.68-2.8,2.65-4.6,1.61,1.01,2.41,1.49,4.02,2.38-1.9,3.42-3.07,5.18-5.57,8.89-2-1.08-3-1.66-5-2.88Z"/>
        <path class="cls-5" d="M61,242.53c-2.41-.69-4.45-1.62-6.06-2.6-1.61-.98-2.94-2.15-3.98-3.44-1.04-1.29-1.65-2.64-1.86-3.99-.2-1.32.05-2.24.76-2.79.71-.54,1.72-.74,3.02-.67,1.3.07,2.97.56,5.12,1.35,2.37.87,4.43,1.73,6.26,2.44,1.83.71,3.29,1.44,4.37,2.28,1.08.85,1.71,1.75,1.9,2.76.05.25.07.49.06.72,0,.23-.04.42-.08.56-7.97-.38-12.25-2.29-18.16-4.56-.13-.79-.2-1.19-.34-1.98,4.76,1.9,7.91,3.63,14.4,4.4-.4.18-.6.27-1,.44-.21-1.09-.95-1.97-2.14-2.79-1.19-.82-2.74-1.51-4.63-2.17-1.33-.47-2.65-.9-3.39-.89-.73.02-1.27.23-1.62.65-.35.42-.45,1.07-.29,1.95.16.91.55,1.77,1.18,2.54.63.77,1.22,1.32,2.51,2.08,1.29.76,2.75,1.39,4.4,1.86,1.26.36,2.42.56,3.48.63,1.06.07,2.15-.06,3.22-.24.89.72,1.33,1.07,2.19,1.76-1.26.3-2.7.48-4.3.52-1.61.03-3.25-.31-5.02-.82Z"/>
        <path class="cls-5" d="M78.47,243.82c-.44-4.4-.79-6.59-1.88-10.95,1.94-.14,2.9-.25,4.83-.53.34.64.51.95.84,1.59.08-.01.12-.02.2-.03,1.06-.72,2.26-1.4,3.6-2.07,1.34-.67,2.96-1.23,4.86-1.73,2.83-.74,4.99-.98,6.47-.56,1.48.41,2.36,1.38,2.59,2.9.44,2.92.58,4.38.73,7.31-2.25.62-3.38.91-5.66,1.45-.17-2.72-.3-4.07-.72-6.77-.14-.92-.61-1.5-1.39-1.75-.78-.25-2-.16-3.67.23-1.2.28-2.25.63-3.14,1.07-.89.44-1.85,1.01-2.9,1.71.57,3.02.77,4.53,1.03,7.56-2.31.31-3.47.43-5.79.58Z"/>
        <path class="cls-5" d="M122.12,232.76c-2.2,1.27-4.01,1.59-5.33,1.66-1.32.07-2.33-.28-2.97-.89-.64-.62-1.01-1.45-1.11-2.51-.21-2.08-.35-3.12-.71-5.19-2.46.9-3.71,1.36-6.23,2.25-.15-.85-.24-1.27-.42-2.12,2.6-1,3.89-1.51,6.43-2.53-.05-1.68-.1-2.52-.26-4.2,1.77-.71,2.71-1.13,4.61-2.09.42,1.62.61,2.43.92,4.05,4.41-2.13,6.72-3.68,10.32-6.6.14,1.05.2,1.58.3,2.64-3.56,2.82-5.84,4.31-10.2,6.37.33,2.14.45,3.21.61,5.35.05.71.26,1.22.62,1.54.36.32.92.42,1.69.29.77-.13,1.8-.51,2.99-1.24.92-.57,1.72-1.13,2.42-1.69.7-.56,1.35-1.15,1.97-1.77.3.72.43,1.09.68,1.83-.82.81-1.72,1.62-2.73,2.43-1,.82-2.17,1.62-3.58,2.43Z"/>
        <path class="cls-5" d="M136.74,220.05c-1.26,1.9-2.25,2.67-2.85,2.42-.6-.25-.88-1.34-.81-3.31.12-3.77.06-5.66-.37-9.41,1.41-1.78,2.01-2.7,3.11-4.56.43,3.77.49,5.66.37,9.45-.04,1.29.06,2,.34,2.14.27.14.79-.37,1.5-1.56.48-.79.92-1.72,1.33-2.78.41-1.06.86-2.46,1.33-4.21.23-4.79.16-7.19-.43-11.95.88-1.94,1.32-2.91,2.28-4.84.96,7.43.89,11.18,0,18.65-.8,1.28-1.17,1.93-1.92,3.22.07-1.02.09-1.52.12-2.53-.03.06-.05.09-.08.14-.55,1.8-1.14,3.46-1.77,5-.63,1.54-1.33,2.91-2.13,4.13Z"/>
        <path class="cls-5" d="M147.97,202.92c1.06-8.13,1.16-12.21.13-20.3,1.22-1.48,1.88-2.21,3.37-3.47.38,1.76.54,2.64.81,4.41.05-.04.07-.06.12-.09.89-2.48,2.06-4.71,3.78-6.49,1.72-1.78,3.69-2.78,5.83-3.34,1.02-.27,1.92-.41,2.68-.44.77-.03,1.53.03,2.27.17-.39,1.86-.6,2.79-1.08,4.64-.81-.06-1.54-.07-2.16-.02-.63.04-1.41.18-2.34.43-1.66.44-3.3,1.31-4.82,2.87-1.53,1.56-2.71,3.81-3.73,6.61-.03,4.66-.23,6.99-.91,11.65-1.76,1.19-2.53,1.9-3.94,3.37Z"/>
        <path class="cls-5" d="M183.32,192.82c-2.33.43-4.29.3-5.98-.35-1.68-.65-2.91-1.77-3.73-3.35-.82-1.58-1.08-3.61-.81-6.12.26-2.45.98-4.65,2.27-6.63,1.29-1.98,2.92-3.62,4.94-4.94,2.02-1.32,4.17-2.21,6.45-2.68,2.52-.53,4.64-.55,6.31-.04,1.67.52,2.87,1.47,3.57,2.9.69,1.43.85,3.24.44,5.43-.1.55-.23,1.08-.38,1.59-.15.51-.3.94-.43,1.28-7.34,2.16-11.33,2.7-19.21,3.97.22-1.52.31-2.28.46-3.79,6.51-1.08,9.77-1.57,15.97-3.15-.51.61-.76.91-1.27,1.51.4-2.32.06-3.93-.92-4.83-.98-.9-2.49-1.13-4.46-.72-1.4.29-2.67.83-3.81,1.62-1.15.79-2.08,1.82-2.82,3.09-.74,1.27-1.19,2.75-1.42,4.46-.23,1.76-.13,3.16.36,4.2.48,1.03,1.27,1.76,2.36,2.14,1.09.38,2.44.42,4.05.11,1.23-.24,2.42-.64,3.55-1.22,1.13-.58,2.3-1.29,3.49-2.16.34,1.2.49,1.79.74,2.99-1.44,1.12-3,2.11-4.68,2.97-1.68.86-3.36,1.43-5.07,1.75Z"/>
        <path class="cls-5" d="M205.02,185.63c-1.19.73-2.16,1-2.9.86-.74-.14-1.22-.63-1.44-1.44-.22-.81-.11-1.92.31-3.33.81-2.69,2.45-5.18,4.97-7.77,2.52-2.59,6.35-6.7,10.41-10.23.14-.92.13-1.67-.02-2.23-.15-.56-.49-.68-1.02-.53-.53.14-1.28.66-2.29,1.49-.71.58-1.44,1.24-2.18,1.97-.75.74-1.52,1.53-2.31,2.37s-1.59,1.68-2.41,2.53c-.5-1.16-.78-1.75-1.41-2.92.95-1.01,1.96-2.05,3.03-3.15s2.15-2.18,3.25-3.26c1.1-1.08,2.17-2.08,3.22-3.02,1.72-1.54,2.96-2.55,3.92-2.49.95.06,1.66.77,2.02,2.09.36,1.32.36,3.21-.13,5.66-1.25,6.28-2.2,9.43-4.62,15.7-1.4.75-2.06,1.15-3.37,1.99.4-1.22.59-1.82.94-3.04-.04.03-.06.04-.1.07-1.28,1.66-2.56,3.47-3.94,5.1-1.38,1.63-2.69,2.81-3.92,3.58ZM208.08,180.19c.91-.63,1.85-1.57,2.84-2.83.99-1.26,1.99-2.79,3.06-4.29.7-2.21,1.01-3.31,1.55-5.52-1.99,1.66-3.73,3.79-5.1,5.17-1.38,1.38-2.46,2.52-3.19,3.54-.73,1.02-1.22,1.95-1.49,2.83-.23.74-.26,1.26-.1,1.55.16.29.45.4.87.32.42-.09.94-.33,1.55-.76Z"/>
        <path class="cls-5" d="M218.9,176.46c6.19-12.6,11.34-24.96,13.66-38.91,2.09-.76,3.16-1.1,5.3-1.66,3.2,11.39,3.93,23.33,3.11,35.09-1.99.13-2.98.24-4.97.56.82-7.5.99-11.23.55-18.58-.09-1.84-.24-3.72-.48-5.64-.23-1.92-.51-3.82-.81-5.71-.06.02-.09.03-.16.05-.39,2.1-.85,4.23-1.38,6.37-.53,2.15-1.14,4.24-1.79,6.29-2.64,8.2-4.36,12.32-8.58,20.49-1.81.62-2.7.96-4.46,1.64ZM226.56,165.01c.5-2,.73-3,1.12-5,4.58-1.74,7-2.52,11.83-3.37-.37,2.03-.58,3.05-1.04,5.08-4.86.84-7.3,1.6-11.91,3.29Z"/>
        <path class="cls-5" d="M246.99,171.02c3.1-10.91,4.17-16.39,4.94-27.29,1.47.17,2.2.3,3.63.67-.03,2.49-.08,3.73-.23,6.22.05.01.07.02.11.03,1.2-1.96,2.49-3.29,3.92-3.86,1.43-.58,3.22-.07,4.27.53.5.29.92.64,1.27,1.05.35.41.69.91,1.01,1.49-.4,1.9-.62,2.85-1.09,4.77-.37-.53-.71-.94-1.01-1.24-.3-.3-.61-.53-1.27-.93-1.17-.71-2.4-.78-3.69-.2-1.29.58-2.59,2.09-4,4.49-1.01,5.98-1.68,8.97-3.32,14.94-1.81-.39-2.72-.52-4.57-.66Z"/>
        <path class="cls-5" d="M274.44,184.2c-1.43-1.13-2.47-2.41-3.14-3.9-.67-1.49-1.02-3.14-1.1-4.99-.07-1.85.06-3.83.37-5.94.6-4.15.85-6.23,1.22-10.38-1.32-1.16-1.98-1.7-3.31-2.69.18-1.8.25-2.69.38-4.49,1.36.96,2.04,1.48,3.4,2.64.34-3,.47-4.5.66-7.48.93.95,1.4,1.45,2.33,2.5-.03,3.07-.09,4.61-.25,7.69,2.23,2.34,3.34,3.63,5.58,6.51-.07,1.73-.12,2.59-.22,4.32-2.27-2.78-3.4-4.03-5.66-6.28-.32,4.04-.54,6.06-1.06,10.1-.17,1.33-.23,2.53-.16,3.57.07,1.05.3,1.97.69,2.77.39.8.97,1.52,1.73,2.18.59.52,1.13.93,1.63,1.21.5.29.99.5,1.46.66.05,1.82.08,2.72.12,4.52-.67-.24-1.38-.54-2.14-.9-.76-.35-1.6-.9-2.52-1.63Z"/>
        <path class="cls-5" d="M289.07,198.94c-1.31-1.62-2.55-3.4-3.68-5.41-1.13-2.01-2.08-3.93-2.83-5.8.69-.73,1.02-1.08,1.67-1.75.72,1.82,1.54,3.54,2.44,5.19.9,1.65,1.91,3.18,3.02,4.66.94,1.26,1.65,1.99,2.11,2.16.46.17.7-.05.72-.69,0-.32-.03-.69-.13-1.11-.09-.42-.26-.93-.5-1.54-.24-.61-.6-1.39-1.07-2.33-.47-.94-1.08-2.09-1.83-3.44-1.71-3.09-2.92-5.61-3.65-7.75-.74-2.15-1.04-4.04-.95-5.7.1-1.96.65-2.91,1.63-2.69.98.22,2.32,1.76,4.03,4.76,1.01,1.78,1.96,3.81,2.84,6.02s1.64,4.27,2.26,6.12c-.54.05-.81.1-1.36.23-.59-1.71-1.23-3.37-1.94-4.95-.7-1.58-1.41-2.99-2.14-4.19-.56-.92-1-1.54-1.33-1.86-.33-.32-.59-.42-.76-.31-.17.11-.27.39-.29.83-.03.76.2,1.7.7,2.85.5,1.15,1.32,2.82,2.49,5.1,1.35,2.64,2.4,4.93,3.14,6.76.74,1.83,1.26,3.36,1.55,4.55.29,1.2.44,2.3.44,3.31,0,1.06-.24,1.64-.74,1.79-.5.14-1.23-.2-2.21-.97-.98-.77-2.19-2.06-3.62-3.82Z"/>
      </g>
      <g>
        <path class="cls-5" d="M5.71,237.15v-24.85c6.45,6.39,9.67,9.16,16.12,13.97.03,1.24.05,1.87.08,3.11-4.69-3.32-7.03-5.17-11.71-9.27.01,2.41.02,3.62.03,6.03,4,3.21,6,4.68,10,7.37.02,1.27.03,1.9.04,3.17-4.01-2.55-6.01-3.95-10.02-7,0,2.79.01,4.18.02,6.97,4.9,3.34,7.35,4.83,12.25,7.51,0,1.24.01,1.86.02,3.1-6.72-3.46-10.09-5.46-16.81-10.09Z"/>
        <path class="cls-5" d="M34.47,252.7c-3.11-6.77-4.71-10.38-7.91-18.23,1.8,1.12,2.7,1.66,4.5,2.68,1.57,3.8,2.36,5.62,3.9,9.16.35.83.7,1.65,1.04,2.48.34.82.66,1.64.95,2.46.06.02.09.04.16.06.3-.57.61-1.14.91-1.68.3-.55.61-1.08.93-1.59,1.41-2.16,2.1-3.21,3.43-5.26,1.71.73,2.56,1.08,4.26,1.72-2.65,3.88-4.09,5.88-7.04,10.13-2.05-.72-3.08-1.11-5.13-1.93Z"/>
        <path class="cls-5" d="M62.12,260.79c-2.29-.45-4.24-1.14-5.84-1.95-1.59-.81-2.88-1.84-3.84-3.02-.96-1.19-1.47-2.48-1.52-3.84-.05-1.32.36-2.32,1.24-2.98.88-.66,2.05-1.01,3.5-1.1,1.45-.1,3.19.18,5.29.74,2.31.62,4.29,1.3,5.97,1.94,1.68.64,2.97,1.33,3.86,2.17.89.83,1.34,1.74,1.34,2.76,0,.25-.02.5-.07.73-.05.23-.11.42-.17.57-7.57-.25-11.54-1.52-17.68-3.1-.03-.8-.05-1.2-.09-2,4.98,1.34,7.99,2.51,14.18,3.04-.42.2-.63.3-1.05.49-.03-1.1-.59-1.97-1.65-2.71-1.06-.74-2.52-1.31-4.34-1.78-1.29-.33-2.56-.59-3.37-.49-.82.1-1.45.39-1.91.87-.46.48-.66,1.17-.62,2.05.04.92.35,1.74.93,2.46.58.72,1.21,1.23,2.4,1.83,1.19.61,2.57,1.08,4.14,1.39,1.2.24,2.31.34,3.34.33,1.03-.01,2.09-.17,3.14-.39.74.7,1.1,1.04,1.82,1.72-1.24.33-2.64.56-4.18.67-1.54.11-3.12-.07-4.8-.4Z"/>
        <path class="cls-5" d="M78.61,261.51c.31-4.43.39-6.64.28-11.06,1.87-.11,2.8-.19,4.66-.39.18.65.27.98.44,1.63.08,0,.12-.01.2-.02,1.14-.67,2.4-1.3,3.79-1.89,1.38-.59,3-1.06,4.84-1.42,2.75-.53,4.75-.59,5.99-.05,1.24.54,1.81,1.58,1.68,3.12-.24,2.95-.42,4.43-.86,7.38-2.14.4-3.22.6-5.38.95.36-2.74.51-4.1.7-6.84.07-.93-.23-1.55-.88-1.86-.65-.31-1.78-.31-3.39-.03-1.16.2-2.2.49-3.11.88-.91.39-1.92.92-3.03,1.57-.08,3.05-.19,4.58-.48,7.63-2.18.21-3.27.29-5.45.39Z"/>
        <path class="cls-5" d="M118.93,254.44c-1.72.81-3.07.92-4.01.78-.94-.14-1.82-.59-2.26-1.28-.45-.69-.6-1.56-.45-2.63.28-2.1.39-3.16.56-5.26-2.42.64-3.65.96-6.11,1.59.06-.86.09-1.29.13-2.15,2.57-.73,3.85-1.11,6.37-1.85.37-1.67.54-2.51.84-4.19,1.77-.52,2.56-.81,4.19-1.49-.07,1.64-.14,2.46-.28,4.11,3.64-1.47,5.54-2.54,8.6-4.58-.17,1.06-.26,1.59-.43,2.66-2.99,1.94-4.85,2.96-8.4,4.35-.23,2.16-.36,3.25-.7,5.42-.11.72-.08,1.27.1,1.64.18.38.56.57,1.12.57.56,0,1.35-.2,2.3-.66.74-.36,1.39-.74,1.97-1.13.59-.39,1.15-.81,1.69-1.27.02.79.01,1.19-.02,1.98-.72.59-1.49,1.17-2.33,1.74-.84.57-1.78,1.12-2.88,1.63Z"/>
        <path class="cls-5" d="M130.93,246.29c-1.13,1.22-1.85,1.56-2.1,1.06-.25-.5-.14-1.68.39-3.68,1.01-3.85,1.15-5.78,1.88-9.54,1.25-1.25,1.8-1.89,2.83-3.2-.75,3.77-.86,5.71-1.83,9.58-.33,1.32-.48,2.12-.37,2.41.11.29.51.05,1.17-.72.44-.52.9-1.17,1.37-1.98.47-.81,1.02-1.91,1.71-3.41,1.42-4.92,1.33-7.4,2.25-12.14.87-1.36,1.3-2.05,2.23-3.41-1.42,7.38-1.52,11.73-4.1,18.5-.73.83-1.07,1.25-1.76,2.08.33-.96.48-1.45.76-2.43-.03.04-.04.06-.07.09-.73,1.45-1.46,2.74-2.18,3.9-.72,1.16-1.42,2.12-2.15,2.9Z"/>
        <path class="cls-5" d="M141.07,235.14c2.89-7.25,2.87-12.07,4.47-20.09,1.07-1.04,1.65-1.55,2.92-2.43-.26,1.77-.32,2.68-.46,4.52.04-.03.06-.04.1-.06,1.07-2.26,2.37-4.21,4.05-5.71,1.67-1.5,3.47-2.31,5.23-2.68.84-.18,1.55-.24,2.13-.21.58.03,1.13.14,1.64.34-.88,1.8-1.25,2.71-1.99,4.54-.61-.13-1.16-.2-1.65-.21-.49-.01-1.11.06-1.87.22-1.35.28-2.78,1-4.17,2.34-1.4,1.34-2.61,3.36-3.82,5.97-.83,4.78-1.62,7.18-3.36,11.3-1.41.76-2.04,1.22-3.22,2.16Z"/>
        <path class="cls-5" d="M168.55,229.08c-1.8.27-3.15.09-4.17-.55-1.02-.64-1.57-1.68-1.77-3.19-.2-1.51.26-3.71.98-6.3.7-2.53,1.6-4.74,3.01-6.65,1.41-1.91,3.12-3.44,5.08-4.61,1.96-1.17,3.94-1.91,5.81-2.23,2.07-.36,3.62-.23,4.65.41,1.04.64,1.62,1.71,1.8,3.24.18,1.53-.03,3.43-.81,5.7-.19.57-.41,1.11-.65,1.64-.24.53-.46.97-.65,1.31-5.96,1.36-9.11,1.71-15.41,2.42.54-1.57.75-2.36,1.14-3.92,5.24-.63,7.83-.96,12.88-1.98-.51.58-.76.87-1.28,1.45.79-2.4.82-4.09.28-5.1-.55-1-1.62-1.35-3.23-1.08-1.14.19-2.23.66-3.3,1.38s-2,1.7-2.81,2.95c-.81,1.25-1.42,2.75-1.95,4.51-.55,1.83-.86,3.31-.85,4.44,0,1.13.48,1.79,1.17,2.19.69.4,1.65.5,2.93.32.97-.14,1.96-.44,2.96-.88,1-.44,2.06-1.01,3.18-1.72-.1,1.14-.19,1.68-.44,2.74-1.4.87-2.86,1.62-4.35,2.26-1.49.64-2.89,1.05-4.21,1.25Z"/>
        <path class="cls-5" d="M185.65,224.6c-.95.46-1.61.58-1.99.38-.38-.2-.47-.67-.3-1.4.17-.74.63-1.73,1.34-3.02,1.35-2.47,3.44-5.16,5.83-7.41,2.39-2.25,4.62-5.14,9.46-7.92.28-.96.38-1.75.32-2.38-.06-.63-.18-.91-.52-.95-.34-.04-.92.25-1.77.81-.59.4-1.24.88-1.92,1.46-.68.58-1.41,1.22-2.16,1.92-.75.7-1.51,1.42-2.28,2.14-.1-1.32-.16-1.97-.23-3.24.96-.87,1.99-1.75,3.08-2.66,1.08-.9,2.17-1.76,3.24-2.6,1.07-.84,2.06-1.58,2.95-2.23,1.46-1.07,2.4-1.68,3.19-1.45.78.23,1.2,1.07,1.27,2.48.07,1.42-.2,3.4-1.03,5.92-2.15,6.49-3.97,9.87-7.99,14.95-1.65.54-2.45.82-4.03,1.41.72-.98,1.07-1.48,1.72-2.51-.05.02-.07.03-.12.05-1.73,1.33-3.13,2.64-4.5,3.8-1.37,1.16-2.56,1.96-3.55,2.44ZM189.68,220.29c.74-.4,1.6-1.05,2.58-1.99s2-2.09,3.4-3.37c1.12-2.03,1.96-3.44,2.89-5.74-2.39,1.3-3.47,2.76-4.72,3.84-1.25,1.08-2.3,2.05-3.11,2.99-.81.94-1.59,1.95-2.02,2.76-.37.68-.57,1.17-.57,1.47,0,.3.13.45.4.45.28,0,.66-.13,1.16-.4Z"/>
        <path class="cls-5" d="M200.29,218.35c9.57-11.69,15.72-24.82,24-37.4,2.19-.61,3.3-.89,5.53-1.36-1.78,11.64-2.13,23.01-4.07,34.62-2.27.12-3.4.22-5.67.48,2.08-6.45,2.76-10.66,3.12-18.21.11-1.88.21-3.8.44-5.72.22-1.92.61-3.79,1.28-5.6-.07.02-.1.02-.17.04-1.42,1.98-2.61,4.03-3.7,6.13-1.08,2.1-2.04,4.19-3,6.24-3.84,8.23-6.31,12.86-12.53,19.59-2.12.46-3.15.71-5.24,1.2ZM210.82,208.25c.95-2.08,1.31-3.12,1.98-5.19,5.2-1.36,7.89-1.97,13.26-2.69-.6,2.09-.93,3.14-1.78,5.24-5.45.72-8.18,1.32-13.46,2.64Z"/>
        <path class="cls-5" d="M232.65,214.11c4.37-8.14,6.62-17.93,8.76-26.84,1.6.09,2.4.17,3.98.41-.59,2.43-.79,3.67-1.2,6.16.05,0,.08.01.13.02,1.55-2.07,3.26-3.5,5.06-4.26,1.8-.75,3.8-.56,5.15-.16.64.19,1.17.46,1.59.79.42.33.81.75,1.16,1.25-.85,1.93-1.22,2.91-1.97,4.89-.47-.45-.9-.79-1.28-1.04-.38-.24-.83-.41-1.58-.68-1.34-.48-2.78-.36-4.33.39-1.55.75-3.13,2.4-4.9,4.96-1.55,6.11-2.75,9.17-5.3,14.46-2.09-.22-3.15-.29-5.27-.35Z"/>
        <path class="cls-5" d="M267.26,222.49c-1.91-.72-3.29-1.67-4.15-2.88-.86-1.21-1.28-2.63-1.33-4.3-.05-1.67.23-3.59.73-5.74.98-4.23,1.21-6.34,1.93-10.5-1.73-.79-2.59-1.16-4.32-1.83.35-1.8.53-2.7.96-4.47,1.77.63,2.66.97,4.42,1.75.88-3.01,1.52-4.48,2.41-7.5,1.14.67,1.71,1.03,2.84,1.77-.64,3.07-1.12,4.57-1.73,7.62,2.87,1.63,4.31,2.53,7.19,4.54-.26,1.71-.37,2.58-.58,4.31-2.97-1.91-4.46-2.76-7.41-4.32-.63,4.05-.83,6.1-1.69,10.21-.28,1.36-.45,2.55-.37,3.51.07.96.36,1.75.87,2.4.51.64,1.27,1.17,2.28,1.59.79.33,1.51.56,2.18.69.67.13,1.32.2,1.96.2.04,1.68.05,2.5.07,4.14-.9-.05-1.87-.14-2.89-.28s-2.16-.45-3.38-.91Z"/>
        <path class="cls-5" d="M286.84,231.93c-1.76-1.04-3.41-2.29-4.92-3.8-1.5-1.51-2.75-3-3.74-4.5.95-.9,1.4-1.34,2.28-2.22.95,1.48,2.03,2.81,3.22,4.04,1.19,1.23,2.54,2.3,4.02,3.26,1.25.82,2.2,1.21,2.82,1.17.62-.05.94-.38.96-1.02.01-.32-.04-.66-.16-1.03-.12-.37-.34-.79-.66-1.28s-.79-1.08-1.41-1.77c-.62-.7-1.43-1.55-2.41-2.53-2.25-2.26-3.84-4.23-4.79-6.03-.96-1.8-1.35-3.54-1.2-5.21.17-1.97.95-3.12,2.29-3.33,1.34-.2,3.09.71,5.29,2.83,1.3,1.26,2.51,2.77,3.64,4.49,1.13,1.72,2.11,3.34,2.91,4.83-.7.36-1.06.56-1.79,1-.77-1.38-1.61-2.68-2.52-3.89-.91-1.21-1.84-2.24-2.79-3.08-.73-.64-1.31-1.04-1.75-1.21-.44-.16-.78-.15-1.02.04-.23.19-.37.51-.4.95-.05.76.25,1.59.9,2.49.65.91,1.74,2.18,3.27,3.86,1.77,1.95,3.15,3.67,4.13,5.09.98,1.42,1.66,2.66,2.04,3.69.38,1.03.58,2.05.58,3.06,0,1.06-.32,1.78-.98,2.18-.66.4-1.65.42-2.96.11-1.31-.32-2.94-1.05-4.86-2.19Z"/>
      </g>
      <g>
        <path class="cls-5" d="M5.71,267.04c0-9.94,0-14.91,0-24.85,6.57,4.15,9.86,5.95,16.43,9.07,0,1.25,0,1.87,0,3.12-4.75-2.1-7.13-3.27-11.88-5.87,0,2.41,0,3.62,0,6.03,4.02,1.94,6.04,2.82,10.06,4.44,0,1.27-.01,1.9-.02,3.17-4.02-1.49-6.03-2.3-10.05-4.08,0,2.79,0,4.18-.02,6.97,4.88,1.78,7.32,2.58,12.19,4.01-.01,1.24-.02,1.86-.04,3.1-6.67-1.75-10.01-2.76-16.68-5.1Z"/>
        <path class="cls-5" d="M34.24,274.9c-2.92-6.16-4.41-9.44-7.45-16.58,1.82.7,2.73,1.03,4.54,1.67,1.47,3.48,2.2,5.16,3.63,8.41.33.76.65,1.52.96,2.29.31.76.6,1.52.87,2.28.06.01.09.02.16.03.33-.63.66-1.25.98-1.86.33-.6.67-1.19,1.02-1.76,1.54-2.42,2.31-3.59,3.82-5.89,1.72.46,2.59.67,4.31,1.07-3.05,4.31-4.62,6.55-7.75,11.32-2.04-.37-3.06-.56-5.09-.98Z"/>
        <path class="cls-5" d="M61.39,279.07c-2.1-.21-3.93-.66-5.48-1.29-1.55-.63-2.78-1.52-3.68-2.6-.9-1.07-1.33-2.31-1.29-3.66.04-1.32.54-2.38,1.5-3.15.96-.77,2.21-1.26,3.72-1.52,1.51-.26,3.23-.19,5.19.15,2.17.37,3.99.88,5.5,1.44,1.5.56,2.62,1.23,3.35,2.04.73.81,1.03,1.72.92,2.74-.03.26-.08.5-.14.73-.07.23-.14.42-.22.57-6.92-.12-10.47-.76-16.61-1.65.03-.8.04-1.2.06-2,4.99.78,7.77,1.41,13.44,1.69-.41.22-.62.32-1.03.54.09-1.1-.34-1.95-1.27-2.62-.92-.66-2.25-1.11-3.96-1.39-1.21-.19-2.36-.29-3.21-.1-.85.19-1.53.55-2.04,1.08-.51.53-.78,1.25-.81,2.13-.03.92.22,1.71.75,2.37.53.66,1.2,1.13,2.28,1.58,1.08.45,2.33.76,3.78.92,1.11.12,2.13.13,3.09.04.96-.09,1.94-.29,2.92-.54.61.67.91,1.01,1.51,1.67-1.16.36-2.46.63-3.88.82-1.42.19-2.88.17-4.42.01Z"/>
        <path class="cls-5" d="M76.41,279.24c.73-4.42,1.07-6.63,1.57-11.06,1.73-.07,2.6-.12,4.33-.24.07.66.11.99.17,1.65.07,0,.11,0,.18-.01,1.13-.62,2.37-1.19,3.72-1.7,1.34-.51,2.88-.87,4.6-1.09,2.57-.33,4.37-.2,5.4.46,1.03.66,1.37,1.77,1.02,3.31-.67,2.95-1.03,4.43-1.79,7.38-1.97.19-2.96.28-4.94.45.65-2.73.96-4.1,1.54-6.83.19-.93.02-1.58-.52-1.94-.54-.36-1.56-.45-3.05-.29-1.08.12-2.06.34-2.94.68-.88.34-1.87.81-2.97,1.42-.49,3.05-.77,4.58-1.36,7.63-1.98.1-2.98.14-4.96.2Z"/>
        <path class="cls-5" d="M112.89,276.06c-1.4.38-2.47.3-3.16-.01-.69-.31-1.44-.86-1.74-1.61-.31-.75-.32-1.66-.03-2.73.57-2.1.84-3.16,1.35-5.26-2.29.37-3.45.55-5.76.92.2-.86.29-1.29.48-2.16,2.43-.46,3.65-.69,6.06-1.16.63-1.65.94-2.47,1.53-4.13,1.7-.33,2.29-.51,3.53-.94-.39,1.64-.6,2.45-1.03,4.1,2.72-.94,4.12-1.62,6.47-2.92-.36,1.04-.53,1.56-.87,2.62-2.27,1.21-3.63,1.85-6.24,2.73-.58,2.16-.87,3.26-1.46,5.44-.2.72-.26,1.29-.19,1.71.07.42.31.69.72.8.4.11,1,.07,1.74-.17.58-.19,1.09-.4,1.56-.66.47-.25.92-.54,1.37-.86,0,.9,0,1.35.02,2.25-.6.4-1.25.78-1.95,1.14-.7.36-1.49.66-2.39.9Z"/>
        <path class="cls-5" d="M123.67,272.19c-1.19.59-2.05.43-2.45-.39-.4-.83-.41-2.21.07-4.23.91-3.89,1.5-5.91,2.85-9.54,1.01-.79,1.47-1.2,2.34-2.02-1.37,3.61-1.93,5.64-2.77,9.57-.28,1.34-.31,2.22-.14,2.68s.6.5,1.24.1c.43-.27.84-.71,1.22-1.34.39-.63.81-1.56,1.31-2.84.58-4.95,1.21-7.65,2.89-12.13.77-.86,1.16-1.29,1.97-2.15-2.56,6.94-3.25,11.51-2.89,18.91-.76.4-1.13.6-1.88,1.01-.08-1.09-.11-1.64-.12-2.75-.03.02-.04.03-.07.05-.48,1.26-1,2.32-1.57,3.21-.57.89-1.24,1.5-2,1.88Z"/>
        <path class="cls-5" d="M133.95,266.56c-.92-8.04-.29-13.14,2.51-20.59.86-.66,1.31-.98,2.29-1.54-.57,1.67-.83,2.53-1.22,4.35.03-.02.05-.02.08-.04,1.07-2.01,2.34-3.64,3.77-4.86,1.43-1.22,2.86-1.87,4.17-2.11.62-.12,1.14-.14,1.54-.08.4.06.75.19,1.07.39-1.04,1.62-1.53,2.46-2.37,4.21-.4-.16-.78-.26-1.11-.29-.34-.04-.78,0-1.34.1-.99.19-2.12.79-3.27,1.93-1.15,1.14-2.28,2.93-3.17,5.47-.57,5.07-.72,7.44-.09,12.05-1.2.36-1.76.58-2.84,1.04Z"/>
        <path class="cls-5" d="M156.45,264.1c-1.43.14-2.83-.21-4.15-1.08-1.33-.87-2.44-2.16-3.19-3.92-.75-1.76-1.04-3.95-.57-6.69.46-2.67,1.26-4.96,2.62-6.77,1.35-1.81,2.95-3.16,4.63-4.17,1.68-1.01,3.25-1.61,4.64-1.85,1.53-.26,2.56-.09,3.09.54.52.63.59,1.64.36,3.14-.23,1.5-.71,3.4-1.16,5.89-.11.62-.25,1.22-.38,1.78-.14.56-.25,1.01-.34,1.37-4.44.82-6.69,1.12-11.28,1.54.21-1.63.35-2.52.67-4.16,3.78-.42,5.62-.69,9.32-1.37-.38.59-.56.89-.91,1.49.45-2.63.82-4.29.64-5.3-.18-1.01-.82-1.37-1.99-1.17-.83.14-1.69.56-2.58,1.21-.9.65-1.75,1.56-2.48,2.8-.73,1.23-1.18,2.84-1.52,4.71-.36,1.93-.27,3.46.1,4.62.37,1.17.99,2.04,1.73,2.56.75.52,1.62.73,2.59.62.74-.09,1.41-.34,2.02-.78.61-.43,1.21-1,1.82-1.72.46,1.37.74,2.04,1.37,3.36-.63.9-1.35,1.66-2.19,2.28-.84.62-1.79.97-2.84,1.08Z"/>
        <path class="cls-5" d="M170.57,262c-.82.21-1.65.07-2.44-.39-.79-.46-1.47-1.19-1.99-2.17s-.81-2.2-.79-3.67c.02-2.81,1.31-5.18,2.93-7.31,1.63-2.13,1.5-4.32,7.43-6.13.24-1.01.34-1.84.27-2.51-.07-.67.02-1.05-.14-1.22-.16-.17-.55-.06-1.19.29-.45.24-.97.58-1.54,1.02-.57.43-1.19.93-1.84,1.51-.65.57-1.3,1.17-1.96,1.79.18-1.38.32-2.02.66-3.24.88-.72,1.81-1.42,2.78-2.12.96-.7,1.91-1.34,2.81-1.95.9-.6,1.71-1.1,2.39-1.51,1.12-.67,1.89-.96,2.8-.59.91.37,1.29,1.23,1.27,2.65s-.49,3.37-1.09,6.06c-1.53,6.92-1.75,10.42-.3,16.55-1.85.29-2.75.44-4.55.76-.49-1.24-.71-1.86-1.07-3.14-.06.01-.09.02-.14.03-1.1,1.31-1.62,2.49-2.19,3.48-.57,1-1.27,1.58-2.12,1.8ZM170.6,257.17c.6-.2,1.12-.69,1.6-1.51.48-.81.86-1.85,1.95-3.08,0-2.32.12-3.51.63-5.98-2.86.85-2.96,1.85-3.85,2.7-.88.85-1.57,1.69-1.99,2.56-.42.88-.65,1.77-.67,2.68-.02.78.1,1.37.33,1.8.23.43.52.7.87.83.34.13.72.13,1.13,0Z"/>
        <path class="cls-5" d="M185.32,258.48c1.64-15.42,9.86-25.47,20.21-36.2,2.56-.42,3.85-.61,6.44-.92-4.46,11.24-3.57,23.79,1.34,34.75-2.47.08-3.71.15-6.18.3-3.19-7.51-4.03-12.2-3.65-19.85.12-1.9.4-3.75.81-5.54.41-1.79.98-3.48,1.65-5.1-.08,0-.12.01-.19.02-1.55,1.73-3.06,3.52-4.49,5.41-1.42,1.89-2.71,3.82-3.83,5.81-4.48,8-5.81,12.95-6.25,20.65-2.34.26-3.5.4-5.84.67ZM190.85,247.86c.16-2.12.42-3.2.77-5.46,6.17-.76,9.31-1.1,15.57-1.49-.33,2.25-.57,3.33-.74,5.47-6.27.4-9.42.73-15.6,1.47Z"/>
        <path class="cls-5" d="M220.82,255.99c-1.19-8.69.39-19.7,4.28-27.59,1.87.07,2.8.13,4.66.28-.78,2.25-1.13,3.4-1.67,5.82.06,0,.09,0,.15.01,1.89-2.06,4.01-3.46,6.19-4.27,2.18-.81,4.43-.85,6.23-.58.86.13,1.56.33,2.13.59.56.27,1.09.61,1.57,1.05-1.1,1.84-1.64,2.78-2.62,4.75-.63-.39-1.2-.68-1.71-.88-.51-.2-1.15-.33-2.05-.51-1.62-.31-3.37-.07-5.23.77-1.86.84-3.81,2.52-5.51,5.29-.95,6.47-1.24,9.5-.64,15.39-2.3-.1-3.46-.12-5.78-.13Z"/>
        <path class="cls-5" d="M261.47,260.3c-2.3-.33-4.13-1.05-5.51-2.13-1.39-1.08-2.4-2.45-2.98-4.15-.58-1.69-.82-3.63-.63-5.81.37-4.29.65-6.59,1.6-10.64-2.31-.51-3.46-.75-5.77-1.19.46-1.75.72-2.6,1.27-4.28,2.37.38,3.55.59,5.91,1.07,1.13-2.89,1.76-4.28,2.99-7.07,1.53.43,2.29.66,3.82,1.15-.88,2.83-1.33,4.24-2.1,7.15,3.83,1.06,5.76,1.63,9.61,2.91-.33,1.66-.49,2.49-.76,4.19-3.97-1.19-5.95-1.72-9.9-2.72-.83,3.96-1.07,6.17-1.4,10.33-.11,1.38.01,2.54.32,3.49.31.95.86,1.7,1.62,2.25.76.55,1.78.93,3.04,1.15.99.17,1.88.25,2.68.23.8-.01,1.57-.09,2.31-.23.4,1.67.61,2.49,1.07,4.13-1,.16-2.08.29-3.24.37-1.16.08-2.47.02-3.94-.2Z"/>
        <path class="cls-5" d="M285.05,264.77c-2.12-.5-4.15-1.27-6.11-2.35-1.95-1.08-3.65-2.24-5.07-3.49.91-1.14,1.38-1.7,2.33-2.8,1.34,1.21,2.8,2.25,4.37,3.12s3.28,1.54,5.13,2.04c1.57.42,2.74.51,3.49.25.75-.25,1.13-.69,1.14-1.33,0-.32-.08-.65-.25-.97-.17-.32-.46-.67-.89-1.04s-1.05-.8-1.88-1.29c-.82-.49-1.89-1.07-3.2-1.74-2.98-1.54-5.13-3.03-6.47-4.56-1.34-1.53-1.93-3.15-1.76-4.81.2-1.96,1.26-3.25,3.05-3.81,1.79-.55,4.13-.18,7.07,1.16,1.74.79,3.35,1.85,4.87,3.12,1.52,1.27,2.82,2.51,3.89,3.68-.94.63-1.42.97-2.38,1.67-1.03-1.09-2.15-2.07-3.38-2.95-1.22-.87-2.46-1.58-3.72-2.1-.97-.4-1.75-.61-2.34-.64-.59-.03-1.04.09-1.36.34-.31.25-.49.6-.52,1.04-.06.75.35,1.48,1.23,2.18.88.7,2.34,1.63,4.38,2.8,2.36,1.35,4.21,2.58,5.51,3.65,1.3,1.07,2.2,2.04,2.71,2.93.5.89.76,1.83.76,2.85,0,1.06-.41,1.89-1.22,2.53-.82.64-2.01,1.01-3.57,1.14s-3.49-.08-5.8-.62Z"/>
      </g>
      <g>
        <g>
          <path class="cls-7" d="M5.71,296.93c0-9.94,0-14.91,0-24.85,6.49,1.91,9.74,2.74,16.24,4.17-.02,1.24-.03,1.87-.04,3.11-4.68-.89-7.03-1.38-11.71-2.47,0,2.41-.01,3.62-.02,6.03,3.95.66,5.93.96,9.88,1.51-.02,1.27-.02,1.9-.04,3.17-3.94-.42-5.91-.64-9.86-1.14-.01,2.79-.02,4.18-.03,6.96,4.77.22,7.16.32,11.93.49-.02,1.24-.03,1.86-.05,3.1-6.52-.03-9.79-.04-16.31-.08Z"/>
          <path class="cls-13" d="M33.61,297.05c-2.82-5.53-4.24-8.47-7.15-14.89,1.79.27,2.68.4,4.47.65,1.39,3.16,2.08,4.68,3.45,7.63.31.69.61,1.39.91,2.09.3.7.57,1.4.83,2.1.06,0,.09,0,.15,0,.33-.69.66-1.36.99-2.02.33-.66.67-1.31,1.03-1.93,1.55-2.67,2.34-3.97,3.91-6.5,1.7.18,2.55.26,4.24.42-3.17,4.72-4.76,7.18-7.85,12.45-1.99,0-2.99,0-4.98-.01Z"/>
          <path class="cls-12" d="M59.89,297.26c-1.88.03-3.58-.17-5.08-.62-1.5-.46-2.7-1.2-3.56-2.15-.86-.95-1.26-2.12-1.19-3.47.07-1.32.59-2.43,1.57-3.31.97-.88,2.23-1.5,3.74-1.93,1.51-.43,3.15-.56,4.93-.45,1.97.13,3.62.45,4.94.94,1.32.48,2.29,1.11,2.89,1.9.6.79.82,1.68.68,2.7-.04.25-.09.49-.17.73-.07.23-.15.42-.22.57-6.16.02-9.22.01-15.23-.19.05-.79.07-1.19.12-1.99,4.89.22,7.38.3,12.44.33-.38.23-.57.35-.94.58.13-1.1-.21-1.92-1.02-2.5-.81-.58-1.99-.91-3.54-.99-1.1-.06-2.11.02-2.96.29-.85.27-1.53.7-2.05,1.29-.52.59-.81,1.32-.86,2.21-.06.91.17,1.67.68,2.26.51.59,1.22,1.02,2.19,1.32.96.3,2.09.44,3.39.44.99,0,1.92-.09,2.78-.26.86-.17,1.73-.4,2.62-.69.52.64.77.96,1.28,1.6-1.04.38-2.2.7-3.46.96-1.26.26-2.58.41-3.96.43Z"/>
          <path class="cls-8" d="M73.23,296.84c.8-4.37,1.23-6.56,2.02-10.97,1.56-.03,2.34-.05,3.89-.1.01.66.01,1,.02,1.66.07,0,.1,0,.16,0,1.06-.57,2.21-1.07,3.46-1.5,1.25-.43,2.65-.68,4.21-.76,2.33-.12,3.93.19,4.79.96.86.77,1.07,1.93.64,3.46-.83,2.93-1.24,4.39-2.06,7.3-1.78-.02-2.66-.03-4.43-.04.7-2.69,1.06-4.05,1.77-6.76.24-.92.14-1.59-.31-2.01-.45-.41-1.36-.59-2.71-.54-.97.04-1.87.2-2.68.48-.81.28-1.73.7-2.75,1.25-.65,3.03-.98,4.54-1.62,7.55-1.76,0-2.64,0-4.4.01Z"/>
          <path class="cls-14" d="M107.78,297.39c-1.88,0-3.3-.24-4.25-.69-.95-.46-1.56-1.1-1.8-1.91-.24-.81-.19-1.73.14-2.79.66-2.08.99-3.12,1.64-5.21-2.12.1-3.18.15-5.29.25.25-.86.38-1.28.63-2.14,2.24-.18,3.36-.28,5.59-.46.74-1.6,1.11-2.41,1.84-4.03,1.58-.13,2.11-.2,3.21-.37-.46,1.64-.69,2.46-1.15,4.09,2.77-.29,4.17-.53,6.79-.96-.16,1.04-.24,1.55-.39,2.59-2.75.35-4.21.54-7.08.78-.61,2.14-.91,3.2-1.52,5.33-.2.7-.24,1.28-.11,1.74.13.46.47.79,1.02,1,.55.21,1.32.31,2.31.28.77-.02,1.49-.08,2.13-.19.64-.11,1.27-.25,1.87-.44.17.93.25,1.39.43,2.33-.85.21-1.76.4-2.74.56-.98.16-2.07.24-3.27.24Z"/>
          <path class="cls-11" d="M124.4,297.39c-2.15,0-3.7-.54-4.59-1.57-.89-1.03-1.24-2.46-1.13-4.33.21-3.6.27-5.4.53-9.04,1.27-.27,1.89-.41,3.1-.7.02,3.63.12,5.42.21,9,.03,1.22.27,2.1.77,2.66.49.56,1.35.83,2.55.78.8-.03,1.52-.23,2.15-.62.62-.39,1.24-1.05,1.8-2-.75-4.46-1.25-6.67-1.91-11.2,1.18-.3,1.76-.45,2.96-.75,1.5,7.02,2.74,10.36,4.04,17.34-1.4,0-2.1,0-3.5.02-.28-1.07-.42-1.6-.71-2.65-.06,0-.09,0-.14,0-.69.93-1.54,1.67-2.53,2.23-.99.56-2.2.83-3.57.83Z"/>
          <path class="cls-10" d="M142.87,296.93c-2.11-7.52-3.93-11.1-6.3-18.66,1.06-.23,1.6-.34,2.7-.53.73,1.74,1.11,2.6,1.91,4.33.04,0,.06,0,.09-.01.16-1.66.62-3,1.43-3.97.81-.96,1.86-1.46,3.16-1.52.62-.03,1.19.02,1.7.13.51.12,1.05.31,1.61.57.39,1.61.6,2.41,1.03,3.99-.62-.2-1.15-.34-1.59-.43-.44-.08-.96-.11-1.57-.09-1.07.04-1.96.48-2.66,1.33-.71.85-1.07,2.27-1.15,4.22,1.7,4.23,2.6,6.33,3.97,10.62-1.73,0-2.6,0-4.33.02Z"/>
          <path class="cls-9" d="M172.96,297.27c-1.86.06-3.72-.32-5.62-1.16-1.9-.84-3.65-2.04-5.29-3.61-1.64-1.56-3.03-3.44-4.19-5.66-1.14-2.16-1.71-4.03-1.74-5.62-.03-1.58.36-2.82,1.15-3.71.79-.89,1.84-1.39,3.2-1.48,1.5-.1,3.01.24,4.55,1.01,1.54.78,3.06,1.88,4.57,3.31,1.51,1.43,2.92,3.08,4.18,4.96.31.47.6.92.85,1.35.25.43.44.78.58,1.06-5.55.2-8.22.41-13.71.47-.73-1.33-1.1-2-1.83-3.33,4.32-.06,6.4-.21,10.76-.41-.02.44-.04.66-.07,1.1-1.28-2-2.6-3.49-3.93-4.46-1.33-.97-2.59-1.42-3.83-1.34-.87.05-1.49.39-1.9.92-.41.54-.55,1.32-.4,2.35.15,1.03.64,2.29,1.47,3.78.86,1.55,1.81,2.82,2.87,3.82,1.06,1,2.2,1.79,3.38,2.27,1.18.48,2.4.69,3.64.65.95-.04,1.75-.22,2.38-.55s1.2-.77,1.69-1.32c1.29,1.18,1.94,1.77,3.2,2.97-.58.72-1.39,1.32-2.39,1.81-1,.49-2.21.76-3.57.8Z"/>
          <path class="cls-15" d="M192.11,297.09c-1.19-.01-2.41-.29-3.64-.83-1.23-.54-2.38-1.26-3.46-2.16s-2-1.96-2.81-3.17c-1.53-2.3-1.84-4.08-.97-5.4.87-1.32,1.83-2.22,6.66-3.09-.68-.8-1.45-1.52-2.31-2.14-.86-.62-1.57-1.09-2.33-1.4-.76-.31-1.51-.41-2.3-.31-.55.07-1.03.23-1.43.49-.4.26-.76.59-1.06.98-.31.39-.6.81-.88,1.24-1.47-1.27-2.19-1.91-3.59-3.19.29-.57.66-1.11,1.09-1.63.44-.52.95-.98,1.55-1.36.59-.38,1.28-.64,2.05-.77,1.27-.21,2.69-.07,4.58.52,1.9.58,3.71,1.58,5.45,2.98,1.74,1.4,3.36,3.15,4.86,5.24,3.85,5.36,5.91,7.99,9.02,13.49-1.46,0-2.18.02-3.61.03-.82-1.13-1.24-1.69-2.13-2.8-.05,0-.07,0-.12,0-.4.94-.89,1.72-1.62,2.35-.74.64-1.75.94-2.99.93ZM190.9,293.12c.88,0,1.55-.26,2-.76s.72-1.17,1.02-2.02c-1.37-1.87-2.09-2.8-3.53-4.66-2.28.36-3.14.71-3.95,1.15-.81.45-1.24.97-1.26,1.59-.02.62.22,1.29.74,2.03.44.63.93,1.14,1.49,1.54.56.4,1.13.69,1.72.87.59.18,1.19.27,1.78.26Z"/>
          <path class="cls-3" d="M206.29,296.56c-3.55-11.03-6.6-20.78-8.51-32.23,2.65-.24,3.98-.34,6.63-.53,7.52,11.17,16.53,21.21,23.67,32.65-1.91,0-2.87,0-4.78.01-4.27-7.04-7.11-10.38-12.48-17.16-1.31-1.69-2.68-3.43-4.06-5.23-1.38-1.8-2.69-3.59-3.88-5.39-.08,0-.11,0-.19.01.34,1.86.77,3.71,1.27,5.55.5,1.84,1.02,3.62,1.55,5.33,2.11,6.87,3.61,10.15,5.39,16.96-1.84.01-2.74.03-4.6.04ZM206.43,287.98c-1.05-1.74-1.59-2.61-2.67-4.34,5.27-.27,7.92-.39,13.21-.55.9,1.8,1.35,2.71,2.22,4.51-5.1.11-7.66.19-12.76.38Z"/>
          <path class="cls-4" d="M233.9,296.44c-3.11-10.04-5.81-14.78-9.29-24.85,1.77,0,2.65,0,4.4.04.91,2.28,1.39,3.4,2.36,5.65.05,0,.08,0,.13,0,.38-2,1.27-3.52,2.62-4.51,1.34-.99,3.08-1.36,4.92-1.28.88.04,1.66.16,2.35.35.69.2,1.38.48,2.07.84.06,1.91.11,2.86.23,4.77-.76-.29-1.42-.51-1.98-.64-.56-.14-1.23-.21-2.06-.26-1.48-.09-2.79.33-3.87,1.25-1.08.92-1.75,2.59-1.96,4.98,1.97,5.45,3.01,8.15,4.56,13.68-1.79,0-2.69-.01-4.49-.01Z"/>
          <path class="cls-1" d="M267.08,297.39c-1.93,0-3.47-.48-4.74-1.35-1.27-.87-2.29-2.07-3.09-3.59-.8-1.52-1.43-3.28-1.88-5.27-.88-3.9-1.36-5.84-2.22-9.76-2.24-.16-3.36-.23-5.6-.36-.42-1.68-.62-2.53-1-4.22,2.36.06,3.53.1,5.89.2-.33-2.97-.46-4.46-.61-7.47,1.71.18,2.57.28,4.28.48.37,2.99.61,4.47,1.13,7.41,3.91.38,5.88.56,9.82.98.22,1.67.34,2.5.59,4.16-3.85-.35-5.78-.49-9.6-.81.75,3.84,1.17,5.74,1.93,9.56.25,1.26.6,2.32,1.05,3.17.45.85,1.03,1.48,1.75,1.9.72.42,1.61.64,2.69.66.84.02,1.59-.05,2.25-.18.66-.14,1.29-.34,1.88-.59.56,1.52.83,2.28,1.36,3.8-.81.33-1.69.62-2.63.88-.94.26-2.03.39-3.26.39Z"/>
          <path class="cls-2" d="M286.79,297.39c-1.77,0-3.48-.31-5.15-.97-1.68-.66-3.16-1.46-4.46-2.4.65-1.28.97-1.91,1.64-3.15,1.26.89,2.58,1.59,3.96,2.11,1.38.51,2.85.78,4.42.83,1.34.04,2.32-.17,2.94-.61.63-.44.94-.98.92-1.61-.01-.32-.09-.61-.25-.89-.16-.28-.43-.54-.81-.79s-.95-.51-1.69-.78c-.74-.27-1.7-.57-2.89-.9-2.7-.77-4.75-1.72-6.13-2.86-1.38-1.14-2.19-2.53-2.37-4.14-.22-1.9.42-3.38,1.95-4.36,1.53-.98,3.84-1.22,6.87-.75,1.79.28,3.49.83,5.07,1.62,1.58.79,2.91,1.59,3.98,2.4-.91.94-1.36,1.42-2.24,2.41-1.01-.76-2.13-1.4-3.35-1.9-1.22-.5-2.45-.84-3.69-1-.95-.12-1.7-.12-2.25,0-.55.13-.94.35-1.18.68-.24.32-.34.7-.3,1.12.06.74.54,1.33,1.41,1.78.87.45,2.28.98,4.19,1.57,2.22.69,3.94,1.37,5.13,2.04,1.2.68,2.02,1.38,2.47,2.12s.67,1.61.67,2.62c0,1.06-.35,2.01-1.04,2.88-.69.86-1.68,1.56-2.98,2.09-1.3.53-2.91.81-4.83.81Z"/>
        </g>
        <g>
          <path class="cls-5" d="M5.71,296.93c0-9.94,0-14.91,0-24.85,6.49,1.91,9.74,2.74,16.24,4.17-.02,1.24-.03,1.87-.04,3.11-4.68-.89-7.03-1.38-11.71-2.47,0,2.41-.01,3.62-.02,6.03,3.95.66,5.93.96,9.88,1.51-.02,1.27-.02,1.9-.04,3.17-3.94-.42-5.91-.64-9.86-1.14-.01,2.79-.02,4.18-.03,6.96,4.77.22,7.16.32,11.93.49-.02,1.24-.03,1.86-.05,3.1-6.52-.03-9.79-.04-16.31-.08Z"/>
          <path class="cls-5" d="M33.61,297.05c-2.82-5.53-4.24-8.47-7.15-14.89,1.79.27,2.68.4,4.47.65,1.39,3.16,2.08,4.68,3.45,7.63.31.69.61,1.39.91,2.09.3.7.57,1.4.83,2.1.06,0,.09,0,.15,0,.33-.69.66-1.36.99-2.02.33-.66.67-1.31,1.03-1.93,1.55-2.67,2.34-3.97,3.91-6.5,1.7.18,2.55.26,4.24.42-3.17,4.72-4.76,7.18-7.85,12.45-1.99,0-2.99,0-4.98-.01Z"/>
          <path class="cls-5" d="M59.89,297.26c-1.88.03-3.58-.17-5.08-.62-1.5-.46-2.7-1.2-3.56-2.15-.86-.95-1.26-2.12-1.19-3.47.07-1.32.59-2.43,1.57-3.31.97-.88,2.23-1.5,3.74-1.93,1.51-.43,3.15-.56,4.93-.45,1.97.13,3.62.45,4.94.94,1.32.48,2.29,1.11,2.89,1.9.6.79.82,1.68.68,2.7-.04.25-.09.49-.17.73-.07.23-.15.42-.22.57-6.16.02-9.22.01-15.23-.19.05-.79.07-1.19.12-1.99,4.89.22,7.38.3,12.44.33-.38.23-.57.35-.94.58.13-1.1-.21-1.92-1.02-2.5-.81-.58-1.99-.91-3.54-.99-1.1-.06-2.11.02-2.96.29-.85.27-1.53.7-2.05,1.29-.52.59-.81,1.32-.86,2.21-.06.91.17,1.67.68,2.26.51.59,1.22,1.02,2.19,1.32.96.3,2.09.44,3.39.44.99,0,1.92-.09,2.78-.26.86-.17,1.73-.4,2.62-.69.52.64.77.96,1.28,1.6-1.04.38-2.2.7-3.46.96-1.26.26-2.58.41-3.96.43Z"/>
          <path class="cls-5" d="M73.23,296.84c.8-4.37,1.23-6.56,2.02-10.97,1.56-.03,2.34-.05,3.89-.1.01.66.01,1,.02,1.66.07,0,.1,0,.16,0,1.06-.57,2.21-1.07,3.46-1.5,1.25-.43,2.65-.68,4.21-.76,2.33-.12,3.93.19,4.79.96.86.77,1.07,1.93.64,3.46-.83,2.93-1.24,4.39-2.06,7.3-1.78-.02-2.66-.03-4.43-.04.7-2.69,1.06-4.05,1.77-6.76.24-.92.14-1.59-.31-2.01-.45-.41-1.36-.59-2.71-.54-.97.04-1.87.2-2.68.48-.81.28-1.73.7-2.75,1.25-.65,3.03-.98,4.54-1.62,7.55-1.76,0-2.64,0-4.4.01Z"/>
          <path class="cls-5" d="M107.78,297.39c-1.88,0-3.3-.24-4.25-.69-.95-.46-1.56-1.1-1.8-1.91-.24-.81-.19-1.73.14-2.79.66-2.08.99-3.12,1.64-5.21-2.12.1-3.18.15-5.29.25.25-.86.38-1.28.63-2.14,2.24-.18,3.36-.28,5.59-.46.74-1.6,1.11-2.41,1.84-4.03,1.58-.13,2.11-.2,3.21-.37-.46,1.64-.69,2.46-1.15,4.09,2.77-.29,4.17-.53,6.79-.96-.16,1.04-.24,1.55-.39,2.59-2.75.35-4.21.54-7.08.78-.61,2.14-.91,3.2-1.52,5.33-.2.7-.24,1.28-.11,1.74.13.46.47.79,1.02,1,.55.21,1.32.31,2.31.28.77-.02,1.49-.08,2.13-.19.64-.11,1.27-.25,1.87-.44.17.93.25,1.39.43,2.33-.85.21-1.76.4-2.74.56-.98.16-2.07.24-3.27.24Z"/>
          <path class="cls-5" d="M124.4,297.39c-2.15,0-3.7-.54-4.59-1.57-.89-1.03-1.24-2.46-1.13-4.33.21-3.6.27-5.4.53-9.04,1.27-.27,1.89-.41,3.1-.7.02,3.63.12,5.42.21,9,.03,1.22.27,2.1.77,2.66.49.56,1.35.83,2.55.78.8-.03,1.52-.23,2.15-.62.62-.39,1.24-1.05,1.8-2-.75-4.46-1.25-6.67-1.91-11.2,1.18-.3,1.76-.45,2.96-.75,1.5,7.02,2.74,10.36,4.04,17.34-1.4,0-2.1,0-3.5.02-.28-1.07-.42-1.6-.71-2.65-.06,0-.09,0-.14,0-.69.93-1.54,1.67-2.53,2.23-.99.56-2.2.83-3.57.83Z"/>
          <path class="cls-5" d="M142.87,296.93c-2.11-7.52-3.93-11.1-6.3-18.66,1.06-.23,1.6-.34,2.7-.53.73,1.74,1.11,2.6,1.91,4.33.04,0,.06,0,.09-.01.16-1.66.62-3,1.43-3.97.81-.96,1.86-1.46,3.16-1.52.62-.03,1.19.02,1.7.13.51.12,1.05.31,1.61.57.39,1.61.6,2.41,1.03,3.99-.62-.2-1.15-.34-1.59-.43-.44-.08-.96-.11-1.57-.09-1.07.04-1.96.48-2.66,1.33-.71.85-1.07,2.27-1.15,4.22,1.7,4.23,2.6,6.33,3.97,10.62-1.73,0-2.6,0-4.33.02Z"/>
          <path class="cls-5" d="M172.96,297.27c-1.86.06-3.72-.32-5.62-1.16-1.9-.84-3.65-2.04-5.29-3.61-1.64-1.56-3.03-3.44-4.19-5.66-1.14-2.16-1.71-4.03-1.74-5.62-.03-1.58.36-2.82,1.15-3.71.79-.89,1.84-1.39,3.2-1.48,1.5-.1,3.01.24,4.55,1.01,1.54.78,3.06,1.88,4.57,3.31,1.51,1.43,2.92,3.08,4.18,4.96.31.47.6.92.85,1.35.25.43.44.78.58,1.06-5.55.2-8.22.41-13.71.47-.73-1.33-1.1-2-1.83-3.33,4.32-.06,6.4-.21,10.76-.41-.02.44-.04.66-.07,1.1-1.28-2-2.6-3.49-3.93-4.46-1.33-.97-2.59-1.42-3.83-1.34-.87.05-1.49.39-1.9.92-.41.54-.55,1.32-.4,2.35.15,1.03.64,2.29,1.47,3.78.86,1.55,1.81,2.82,2.87,3.82,1.06,1,2.2,1.79,3.38,2.27,1.18.48,2.4.69,3.64.65.95-.04,1.75-.22,2.38-.55s1.2-.77,1.69-1.32c1.29,1.18,1.94,1.77,3.2,2.97-.58.72-1.39,1.32-2.39,1.81-1,.49-2.21.76-3.57.8Z"/>
          <path class="cls-5" d="M192.11,297.09c-1.19-.01-2.41-.29-3.64-.83-1.23-.54-2.38-1.26-3.46-2.16s-2-1.96-2.81-3.17c-1.53-2.3-1.84-4.08-.97-5.4.87-1.32,1.83-2.22,6.66-3.09-.68-.8-1.45-1.52-2.31-2.14-.86-.62-1.57-1.09-2.33-1.4-.76-.31-1.51-.41-2.3-.31-.55.07-1.03.23-1.43.49-.4.26-.76.59-1.06.98-.31.39-.6.81-.88,1.24-1.47-1.27-2.19-1.91-3.59-3.19.29-.57.66-1.11,1.09-1.63.44-.52.95-.98,1.55-1.36.59-.38,1.28-.64,2.05-.77,1.27-.21,2.69-.07,4.58.52,1.9.58,3.71,1.58,5.45,2.98,1.74,1.4,3.36,3.15,4.86,5.24,3.85,5.36,5.91,7.99,9.02,13.49-1.46,0-2.18.02-3.61.03-.82-1.13-1.24-1.69-2.13-2.8-.05,0-.07,0-.12,0-.4.94-.89,1.72-1.62,2.35-.74.64-1.75.94-2.99.93ZM190.9,293.12c.88,0,1.55-.26,2-.76s.72-1.17,1.02-2.02c-1.37-1.87-2.09-2.8-3.53-4.66-2.28.36-3.14.71-3.95,1.15-.81.45-1.24.97-1.26,1.59-.02.62.22,1.29.74,2.03.44.63.93,1.14,1.49,1.54.56.4,1.13.69,1.72.87.59.18,1.19.27,1.78.26Z"/>
          <path class="cls-5" d="M206.29,296.56c-3.55-11.03-6.6-20.78-8.51-32.23,2.65-.24,3.98-.34,6.63-.53,7.52,11.17,16.53,21.21,23.67,32.65-1.91,0-2.87,0-4.78.01-4.27-7.04-7.11-10.38-12.48-17.16-1.31-1.69-2.68-3.43-4.06-5.23-1.38-1.8-2.69-3.59-3.88-5.39-.08,0-.11,0-.19.01.34,1.86.77,3.71,1.27,5.55.5,1.84,1.02,3.62,1.55,5.33,2.11,6.87,3.61,10.15,5.39,16.96-1.84.01-2.74.03-4.6.04ZM206.43,287.98c-1.05-1.74-1.59-2.61-2.67-4.34,5.27-.27,7.92-.39,13.21-.55.9,1.8,1.35,2.71,2.22,4.51-5.1.11-7.66.19-12.76.38Z"/>
          <path class="cls-5" d="M233.9,296.44c-3.11-10.04-5.81-14.78-9.29-24.85,1.77,0,2.65,0,4.4.04.91,2.28,1.39,3.4,2.36,5.65.05,0,.08,0,.13,0,.38-2,1.27-3.52,2.62-4.51,1.34-.99,3.08-1.36,4.92-1.28.88.04,1.66.16,2.35.35.69.2,1.38.48,2.07.84.06,1.91.11,2.86.23,4.77-.76-.29-1.42-.51-1.98-.64-.56-.14-1.23-.21-2.06-.26-1.48-.09-2.79.33-3.87,1.25-1.08.92-1.75,2.59-1.96,4.98,1.97,5.45,3.01,8.15,4.56,13.68-1.79,0-2.69-.01-4.49-.01Z"/>
          <path class="cls-5" d="M267.08,297.39c-1.93,0-3.47-.48-4.74-1.35-1.27-.87-2.29-2.07-3.09-3.59-.8-1.52-1.43-3.28-1.88-5.27-.88-3.9-1.36-5.84-2.22-9.76-2.24-.16-3.36-.23-5.6-.36-.42-1.68-.62-2.53-1-4.22,2.36.06,3.53.1,5.89.2-.33-2.97-.46-4.46-.61-7.47,1.71.18,2.57.28,4.28.48.37,2.99.61,4.47,1.13,7.41,3.91.38,5.88.56,9.82.98.22,1.67.34,2.5.59,4.16-3.85-.35-5.78-.49-9.6-.81.75,3.84,1.17,5.74,1.93,9.56.25,1.26.6,2.32,1.05,3.17.45.85,1.03,1.48,1.75,1.9.72.42,1.61.64,2.69.66.84.02,1.59-.05,2.25-.18.66-.14,1.29-.34,1.88-.59.56,1.52.83,2.28,1.36,3.8-.81.33-1.69.62-2.63.88-.94.26-2.03.39-3.26.39Z"/>
          <path class="cls-5" d="M286.79,297.39c-1.77,0-3.48-.31-5.15-.97-1.68-.66-3.16-1.46-4.46-2.4.65-1.28.97-1.91,1.64-3.15,1.26.89,2.58,1.59,3.96,2.11,1.38.51,2.85.78,4.42.83,1.34.04,2.32-.17,2.94-.61.63-.44.94-.98.92-1.61-.01-.32-.09-.61-.25-.89-.16-.28-.43-.54-.81-.79s-.95-.51-1.69-.78c-.74-.27-1.7-.57-2.89-.9-2.7-.77-4.75-1.72-6.13-2.86-1.38-1.14-2.19-2.53-2.37-4.14-.22-1.9.42-3.38,1.95-4.36,1.53-.98,3.84-1.22,6.87-.75,1.79.28,3.49.83,5.07,1.62,1.58.79,2.91,1.59,3.98,2.4-.91.94-1.36,1.42-2.24,2.41-1.01-.76-2.13-1.4-3.35-1.9-1.22-.5-2.45-.84-3.69-1-.95-.12-1.7-.12-2.25,0-.55.13-.94.35-1.18.68-.24.32-.34.7-.3,1.12.06.74.54,1.33,1.41,1.78.87.45,2.28.98,4.19,1.57,2.22.69,3.94,1.37,5.13,2.04,1.2.68,2.02,1.38,2.47,2.12s.67,1.61.67,2.62c0,1.06-.35,2.01-1.04,2.88-.69.86-1.68,1.56-2.98,2.09-1.3.53-2.91.81-4.83.81Z"/>
        </g>
      </g>
    </g>
  </g>
</svg>